<svg xmlns="http://www.w3.org/2000/svg" fill="none" viewBox="0 0 364 73"><path d="M18.693 51.338c-.15.48-.404.838-.763 1.078-.33.24-.66.36-.989.36-.509 0-.943-.15-1.302-.45-.36-.33-.57-.793-.63-1.392.09-.839.136-1.677.136-2.516 0-1.887-.18-3.773-.54-5.66a51.91 51.91 0 0 1-.673-5.84v-1.303c0-.449.015-.958.045-1.527.03-.57.074-1.123.134-1.662.06-.54.12-1.033.18-1.483.09-.479.18-.853.27-1.123l.134-.449c0-.18.06-.344.18-.494.15-.18.315-.33.494-.45.21-.12.42-.209.629-.269.21-.09.39-.135.54-.135.418 0 .823.15 1.212.45a65.342 65.342 0 0 1 3.549 3.144 53.296 53.296 0 0 1 3.459 3.414 53.183 53.183 0 0 1 3.055 3.504c.928 1.168 1.677 2.246 2.246 3.235l.27-2.92c.149-1.288.254-2.62.314-3.998.09-1.378.15-2.8.18-4.268a2.64 2.64 0 0 1-.09-.629c0-.599.164-1.063.494-1.392.329-.33.748-.495 1.257-.495.42 0 .764.075 1.034.225.3.15.524.344.673.584.18.24.3.51.36.809.06.27.09.539.09.808 0 .48-.045.959-.135 1.438-.06.449-.09.868-.09 1.258-.18 2.515-.374 4.986-.584 7.412a84.519 84.519 0 0 0-.314 7.367c-.03.569-.21 1.048-.54 1.437-.299.39-.748.584-1.347.584a1.62 1.62 0 0 1-.944-.314 5.73 5.73 0 0 1-.763-.719c-.24-.27-.45-.539-.63-.809-.149-.27-.254-.464-.314-.584l-.763-1.662a41.617 41.617 0 0 0-4.852-7.008c-1.797-2.156-3.683-4.072-5.66-5.75-.06.42-.12.854-.18 1.303-.03.42-.044.839-.044 1.258 0 1.138.06 2.276.18 3.414l.448 3.414c.15 1.108.285 2.231.405 3.37.15 1.137.224 2.29.224 3.458v.989c0 .329-.015.658-.045.988Zm23-10.197c-.06.03-.09.06-.09.09h.09c.21 0 .42.06.63.18.209.089.389.209.538.358.15.12.27.24.36.36.12.09.194.135.224.135.45.21.944.314 1.483.314.868 0 1.602-.12 2.2-.36.6-.269.9-.898.9-1.886-.18-.599-.39-1.093-.63-1.482-.21-.39-.569-.764-1.078-1.123l-.943-.405h-.629c-.24 0-.554.06-.943.18a6.45 6.45 0 0 0-1.168.494c-.12.18-.24.45-.36.809-.12.33-.224.659-.314.988-.09.33-.165.629-.225.898-.03.27-.045.42-.045.45Zm.36 4.357-.135-.494c.36 1.587 1.228 2.89 2.605 3.908.3.24.674.45 1.123.629.48.18.944.344 1.393.494.48.15.898.27 1.258.36.36.06.584.09.674.09.3-.27.674-.405 1.123-.405.539.06.958.285 1.258.674.299.36.449.749.449 1.168 0 .659-.315 1.183-.944 1.572-.599.42-1.242.629-1.931.629a9.98 9.98 0 0 1-4.178-.898 11.016 11.016 0 0 1-3.459-2.336 12.622 12.622 0 0 1-2.426-3.414 10.649 10.649 0 0 1-.988-4.088c0-.989.075-2.052.225-3.19a9.85 9.85 0 0 1 .943-3.144 6.588 6.588 0 0 1 2.066-2.471c.929-.659 2.157-.988 3.684-.988.958 0 1.857.21 2.695.629a6.38 6.38 0 0 1 2.157 1.617 7.785 7.785 0 0 1 1.482 2.38c.36.87.539 1.783.539 2.74 0 .87-.165 1.633-.494 2.292a4.622 4.622 0 0 1-1.258 1.662c-.539.42-1.183.749-1.932.988a8.141 8.141 0 0 1-2.29.315c-.33 0-.704-.03-1.124-.09-.389-.06-.763-.12-1.123-.18-.36-.09-.673-.164-.943-.224-.24-.09-.39-.165-.45-.225Zm15.094 6.2c0-.81.014-1.648.044-2.516.06-.869.165-1.692.315-2.471l.314-3.324.405-2.426c.09-.39.134-.749.134-1.078 0-.36-.075-.734-.224-1.123-.12-.39-.464-.584-1.033-.584-.24 0-.48-.06-.72-.18a4.637 4.637 0 0 1-.583-.494 4.09 4.09 0 0 1-.45-.629 1.492 1.492 0 0 1-.134-.584c0-.36.18-.749.539-1.168.36-.42.853-.629 1.482-.629 1.558.15 2.696.584 3.414 1.303.72.719 1.078 1.602 1.078 2.65.899-.629 1.947-1.093 3.145-1.392 1.198-.33 2.62-.554 4.268-.674.658 0 1.168.18 1.527.539.36.33.539.749.539 1.258 0 .449-.15.853-.45 1.213-.299.33-.703.539-1.212.629-1.378.09-2.546.24-3.504.449-.958.21-1.767.554-2.426 1.033-.659.45-1.168 1.063-1.527 1.842-.36.778-.629 1.782-.809 3.01l-.135.673v1.842l-.09 1.393c0 .449-.03.913-.09 1.392l-.134.809-.27.719c-.479.569-1.033.853-1.662.853-1.078 0-1.662-.629-1.752-1.886v-.45ZM75.07 35.524c.12-.03.255-.044.405-.044.15 0 .329-.016.539-.046h.539c1.467 0 2.545.54 3.234 1.618l.18-.18c.12-.03.314-.18.584-.45l.135-.044c.838-.42 1.587-.629 2.246-.629 1.347 0 2.455.42 3.324 1.258a9.429 9.429 0 0 1 2.066 2.965c0 .03.03.075.09.134l.045.045c.3-.449.644-.883 1.033-1.302.39-.45.794-.839 1.213-1.168.45-.36.899-.644 1.348-.854.479-.21.958-.314 1.437-.314.809 0 1.543.3 2.201.898.66.57 1.213 1.318 1.663 2.246.479.929.853 1.977 1.123 3.145s.404 2.35.404 3.549c0 1.198-.045 2.41-.135 3.638a49.28 49.28 0 0 0-.135 3.684c-.15.719-.419 1.153-.808 1.303-.39.18-.719.27-.989.27l-1.033-.36c-.12-.12-.36-.434-.718-.944v-.045c-.03 0-.045-.015-.045-.045s-.015-.044-.045-.044v-.09l-.09-.315a2.68 2.68 0 0 1-.045-1.527c.09-.24.165-.434.225-.584l.134-1.123a36.297 36.297 0 0 0 .18-3.684c0-1.198-.135-2.336-.404-3.414-.27-1.078-.749-1.946-1.438-2.605a6.629 6.629 0 0 0-2.111 2.066 11.52 11.52 0 0 0-1.213 2.83 22.535 22.535 0 0 0-.584 3.37 45.693 45.693 0 0 0-.135 3.503c0 .48-.18.899-.539 1.258-.36.36-.748.54-1.168.54-.42 0-.853-.136-1.302-.405-.42-.27-.63-.749-.63-1.438v-2.2c.03-.75.075-1.558.135-2.426 0-.869-.045-1.737-.134-2.606a14.72 14.72 0 0 0-.36-2.426c-.18-.748-.434-1.392-.764-1.931-.329-.57-.748-.974-1.257-1.213-.33 0-.644.06-.944.18-.27.12-.539.254-.808.404l-.135.09c-.33.329-.54.509-.629.539 0 .898.075 1.826.225 2.785.15.958.224 1.946.224 2.965 0 .748-.03 1.617-.09 2.605A16.87 16.87 0 0 1 81 51.742c-.18.869-.45 1.602-.809 2.201-.329.63-.808.944-1.437.944-.45 0-.884-.15-1.303-.45-.39-.299-.584-.793-.584-1.482 0-.18.015-.314.045-.404.57-1.977.854-4.178.854-6.604 0-2.545-.24-4.687-.72-6.424l-.134-.18a6.98 6.98 0 0 1-.988-.179 5.11 5.11 0 0 1-.944-.36 3.162 3.162 0 0 1-.763-.628c-.21-.27-.315-.6-.315-.989 0-.748.39-1.302 1.168-1.662Zm39.352 11.186-.315-.045a4.49 4.49 0 0 1-1.257-.45l-1.079-.628c-.359-.21-.703-.39-1.033-.54a2.047 2.047 0 0 0-.988-.269c-1.048.12-1.962.48-2.74 1.078-.749.6-1.123 1.318-1.123 2.157 0 .24.06.494.179.763.12.27.315.614.584 1.033a4.79 4.79 0 0 0 2.561.72c1.078 0 2.021-.105 2.83-.315l.584-.584c.299-.39.704-.584 1.213-.584h.224l.09-.719c.03-.24.075-.479.135-.719l.135-.898Zm.674 5.436-1.034.988c-.389.36-1.018.614-1.886.763-.839.18-1.722.27-2.651.27-1.257 0-2.336-.135-3.234-.404-.868-.27-1.632-.794-2.291-1.573-1.078-1.437-1.617-2.785-1.617-4.043a6.5 6.5 0 0 1 .494-2.47 7.504 7.504 0 0 1 1.482-2.246 7.533 7.533 0 0 1 2.291-1.617c.929-.42 1.962-.63 3.1-.63.479.06.943.165 1.393.315.449.15.868.315 1.257.494.39.18.734.36 1.034.54.329.149.584.269.763.359l-.269-1.213a11.3 11.3 0 0 0-.539-1.393 9.118 9.118 0 0 0-.764-1.392l-.898-.81a4.402 4.402 0 0 1-.674-.224c-.21-.12-.479-.18-.809-.18-.868.06-1.722.18-2.56.36-.839.15-1.677.374-2.516.674-.09.03-.225.045-.404.045-.629 0-1.123-.18-1.483-.54-.329-.359-.494-.748-.494-1.167 0-.36.09-.674.27-.944.179-.3.524-.599 1.033-.898.778-.24 1.632-.494 2.56-.764a9.581 9.581 0 0 1 2.875-.449c1.648 0 3.01.33 4.088.988a7.246 7.246 0 0 1 2.606 2.606 9.914 9.914 0 0 1 1.347 3.504c.27 1.288.405 2.56.405 3.818 0 .749-.03 1.557-.09 2.426-.03.838-.135 1.632-.315 2.38-.149.72-.374 1.318-.673 1.798-.3.479-.704.718-1.213.718h-.36c-.119-.03-.194-.06-.224-.09Zm9.658-24.168c.15-.51.374-.914.674-1.213.329-.3.704-.45 1.123-.45.898 0 1.527.54 1.887 1.618a427.7 427.7 0 0 1-.045 6.378 371.01 371.01 0 0 0-.045 5.616c0 2.995.179 6.244.539 9.748.269.09.599.194.988.314.419.09.809.24 1.168.45.389.18.704.419.943.718.27.3.405.674.405 1.123 0 .45-.18.839-.539 1.168-.33.36-.734.54-1.213.54-.33 0-.689-.09-1.078-.27-1.049-.51-1.857-.854-2.426-1.034-.539-.21-.959-.434-1.258-.673-.27-.27-.449-.674-.539-1.213-.09-.57-.18-1.468-.27-2.696-.209-1.108-.314-2.32-.314-3.638V27.978Zm16.891-.36c-.45.39-.824.629-1.124.719a4.77 4.77 0 0 1-.943.18c-.898-.15-1.557-.54-1.976-1.168-.42-.66-.629-1.408-.629-2.247 0-.299.045-.628.134-.988.12-.36.3-.689.539-.988.24-.3.569-.54.989-.719.419-.21.943-.314 1.572-.314 1.258 0 2.276.539 3.055 1.617.778 1.048 1.168 2.47 1.168 4.268 0 .808-.135 1.557-.405 2.246a6.615 6.615 0 0 1-1.078 1.841 5.45 5.45 0 0 1-1.572 1.303c-.599.33-1.228.51-1.887.54-.569 0-.973-.15-1.213-.45a1.974 1.974 0 0 1-.314-1.078c0-.36.105-.704.314-1.033.24-.33.629-.494 1.168-.494.539 0 1.034-.225 1.483-.674.479-.48.719-1.198.719-2.157v-.404Zm18.507 6.649c.48.15.839.404 1.078.763.24.36.36.719.36 1.078 0 .51-.18.944-.539 1.303-.36.33-.794.494-1.303.494-.15 0-.269-.015-.359-.045a16.002 16.002 0 0 0-1.752-.404 6.853 6.853 0 0 0-2.92-.045c-.449.09-.929.21-1.438.36l-.045.044a7.515 7.515 0 0 0 1.842 2.291c.779.66 1.587 1.333 2.426 2.022a26.764 26.764 0 0 1 2.381 2.111 6.814 6.814 0 0 1 1.707 2.606c.15.389.224.793.224 1.213 0 .629-.119 1.287-.359 1.976a5.946 5.946 0 0 1-1.078 1.887c-.449.569-1.033 1.033-1.752 1.393-.719.389-1.572.583-2.561.583-1.108 0-2.126-.18-3.054-.539a8.057 8.057 0 0 1-2.381-1.347l-.854-.54-.404-.404c-.449-.389-.689-.868-.719-1.437v-.27c.09-.569.285-.973.584-1.213a2.28 2.28 0 0 1 1.168-.494c.599 0 1.153.315 1.662.944l1.079.584c.419.24.883.479 1.392.718.539.24 1.063.36 1.572.36.42 0 .824-.12 1.213-.36l.27-.224c.09-.27.165-.54.224-.809.09-.27.135-.524.135-.764 0-.449-.105-.823-.314-1.123a2.588 2.588 0 0 0-.764-.853 5.952 5.952 0 0 0-.988-.719 25.394 25.394 0 0 1-2.471-1.887 33.756 33.756 0 0 1-1.752-1.796 14.458 14.458 0 0 1-1.572-2.067c-.419-.748-.629-1.437-.629-2.066 0-.749.225-1.378.674-1.887a4.615 4.615 0 0 1 1.662-1.258 7.273 7.273 0 0 1 2.066-.674c.719-.15 1.333-.224 1.842-.224.839 0 1.587.06 2.246.18.689.12 1.423.299 2.201.539Zm27.942 18.957c0 .509-.195.928-.584 1.257-.36.33-.749.495-1.168.495-.419 0-.839-.15-1.258-.45-.389-.27-.614-.718-.674-1.347 0-2.007.015-3.998.045-5.975.06-1.977.09-3.968.09-5.974 0-.57-.045-1.468-.135-2.696-.06-1.258-.09-2.56-.09-3.908 0-1.438.045-2.845.135-4.223.12-1.377.389-2.575.809-3.593l.269-.45.494-.404a7.19 7.19 0 0 1 2.516-.45c1.228 0 2.546.136 3.953.405 1.408.24 2.71.674 3.908 1.303a8.45 8.45 0 0 1 2.965 2.56c.809 1.049 1.213 2.396 1.213 4.043 0 .779-.12 1.498-.359 2.157a7.092 7.092 0 0 1-.854 1.797 6.813 6.813 0 0 1-1.168 1.437c-.419.42-.838.764-1.258 1.033a11.492 11.492 0 0 1-2.875 1.348 67.2 67.2 0 0 0-3.279 1.033l-.539.18-.09-.045a21.696 21.696 0 0 1 2.022 1.617c.658.54 1.317 1.078 1.976 1.617a55.268 55.268 0 0 0 2.112 1.573c.748.479 1.557.928 2.425 1.347.569.54.854 1.108.854 1.707 0 .51-.18.928-.539 1.258-.33.3-.734.45-1.213.45-.359 0-.779-.106-1.258-.315-.479-.21-.973-.465-1.482-.764-.509-.33-1.034-.674-1.573-1.033-.509-.36-.988-.689-1.437-.988a24.87 24.87 0 0 1-2.156-1.573 30.283 30.283 0 0 1-1.707-1.572v.943c0 .989-.03 2.007-.09 3.055a54.933 54.933 0 0 0 0 3.145Zm.135-13.791-.09.09c-.03 0 .045-.03.224-.09.659-.18 1.468-.36 2.426-.54.988-.21 1.932-.494 2.83-.853.899-.39 1.662-.898 2.291-1.527.659-.66.988-1.543.988-2.65 0-.9-.179-1.603-.539-2.112a3.195 3.195 0 0 0-1.347-1.168 5.814 5.814 0 0 0-1.842-.629l-2.066-.45a13.02 13.02 0 0 0-1.303-.224 6.779 6.779 0 0 0-1.213-.134c-.12 0-.21.194-.27.584-.06.359-.104.793-.134 1.302v5.75c.03.989.045 1.872.045 2.65Zm19.541 1.707c-.06.03-.09.06-.09.09h.09c.209 0 .419.06.628.18.21.089.39.209.54.358.149.12.269.24.359.36.12.09.195.135.224.135.45.21.944.314 1.483.314.868 0 1.602-.12 2.201-.36.599-.269.899-.898.899-1.886-.18-.599-.39-1.093-.629-1.482-.21-.39-.569-.764-1.079-1.123l-.943-.405h-.629c-.239 0-.554.06-.943.18a6.48 6.48 0 0 0-1.168.494c-.12.18-.24.45-.359.809-.12.33-.225.659-.315.988a19.6 19.6 0 0 0-.225.898c-.029.27-.044.42-.044.45Zm.359 4.357-.135-.494c.36 1.587 1.228 2.89 2.606 3.908.299.24.673.45 1.123.629.479.18.943.344 1.392.494.479.15.899.27 1.258.36.359.06.584.09.674.09.299-.27.674-.405 1.123-.405.539.06.958.285 1.258.674.299.36.449.749.449 1.168 0 .659-.315 1.183-.943 1.572-.599.42-1.243.629-1.932.629-1.467 0-2.86-.3-4.178-.898a11.034 11.034 0 0 1-3.459-2.336 12.631 12.631 0 0 1-2.426-3.414 10.65 10.65 0 0 1-.988-4.088c0-.989.075-2.052.225-3.19a9.861 9.861 0 0 1 .943-3.144 6.584 6.584 0 0 1 2.067-2.471c.928-.659 2.156-.988 3.683-.988.958 0 1.857.21 2.695.629a6.38 6.38 0 0 1 2.157 1.617 7.774 7.774 0 0 1 1.482 2.38c.359.87.539 1.783.539 2.74 0 .87-.165 1.633-.494 2.292a4.617 4.617 0 0 1-1.258 1.662c-.539.42-1.183.749-1.931.988a8.146 8.146 0 0 1-2.291.315c-.33 0-.704-.03-1.123-.09-.39-.06-.764-.12-1.124-.18a36.39 36.39 0 0 0-.943-.224c-.239-.09-.389-.165-.449-.225Zm24.572-11.23c.479.15.839.404 1.078.763.24.36.36.719.36 1.078 0 .51-.18.944-.539 1.303-.36.33-.794.494-1.303.494-.15 0-.27-.015-.359-.045a16.002 16.002 0 0 0-1.752-.404 6.853 6.853 0 0 0-2.92-.045c-.45.09-.929.21-1.438.36l-.045.044a7.485 7.485 0 0 0 1.842 2.291c.779.66 1.587 1.333 2.426 2.022a26.764 26.764 0 0 1 2.381 2.111 6.814 6.814 0 0 1 1.707 2.606c.149.389.224.793.224 1.213 0 .629-.12 1.287-.359 1.976a5.946 5.946 0 0 1-1.078 1.887c-.449.569-1.033 1.033-1.752 1.393-.719.389-1.572.583-2.561.583-1.108 0-2.126-.18-3.054-.539a8.057 8.057 0 0 1-2.381-1.347l-.854-.54-.404-.404c-.449-.389-.689-.868-.719-1.437v-.27c.09-.569.285-.973.584-1.213a2.28 2.28 0 0 1 1.168-.494c.599 0 1.153.315 1.662.944l1.078.584c.42.24.884.479 1.393.718.539.24 1.063.36 1.572.36.419 0 .824-.12 1.213-.36l.27-.224c.089-.27.164-.54.224-.809.09-.27.135-.524.135-.764 0-.449-.105-.823-.314-1.123a2.588 2.588 0 0 0-.764-.853c-.3-.27-.629-.51-.988-.719a23.79 23.79 0 0 1-1.079-.764c-.329-.24-.793-.613-1.392-1.122a33.756 33.756 0 0 1-1.752-1.797 14.458 14.458 0 0 1-1.572-2.067c-.42-.748-.629-1.437-.629-2.066 0-.749.224-1.378.674-1.887a4.615 4.615 0 0 1 1.662-1.258 7.263 7.263 0 0 1 2.066-.674c.719-.15 1.333-.224 1.842-.224.838 0 1.587.06 2.246.18.689.12 1.423.299 2.201.539Zm8.176 2.11c-.419-.478-.629-.943-.629-1.392 0-.509.15-.943.449-1.302.33-.36.749-.54 1.258-.54.389 0 .779.12 1.168.36.389.21.749.48 1.078.809.33.299.614.598.854.898.239.3.389.51.449.629.06-.03.195-.045.404-.045.569 0 1.108.15 1.617.45a5.021 5.021 0 0 1 1.438 1.077c.449.45.838.929 1.168 1.438.329.509.614.988.853 1.437.24.45.45.944.629 1.483.21.509.375 1.033.494 1.572.12.539.21 1.063.27 1.572a11.792 11.792 0 0 1-.404 4.852 7.06 7.06 0 0 1-1.528 2.785c-.688.809-1.602 1.437-2.74 1.887-1.138.479-2.531.718-4.178.718-1.198 0-2.186-.359-2.965-1.078a7.773 7.773 0 0 1-1.751-2.515 13.833 13.833 0 0 1-.899-3.01c-.15-1.018-.224-1.842-.224-2.47 0-.6.074-1.184.224-1.753.15-.569.345-1.093.584-1.572.24-.51.479-.958.719-1.348.269-.389.524-.718.764-.988l2.246-2.65c-.03-.12-.135-.255-.315-.405a7.388 7.388 0 0 0-.449-.494l-.584-.404Zm4.537 2.876-.18.27c-.359.449-.763.913-1.213 1.392-.419.48-.823.973-1.212 1.482a8.396 8.396 0 0 0-.989 1.662 4.77 4.77 0 0 0-.404 1.977c0 .659.045 1.318.135 1.977.12.629.269 1.198.449 1.707.21.509.464.928.764 1.258.299.299.644.449 1.033.449.329 0 .659-.03.988-.09.36-.06.674-.12.944-.18l1.617-.808c.09-.12.239-.27.449-.45.21-.21.374-.419.494-.628.27-.989.404-1.962.404-2.92 0-1.258-.209-2.456-.629-3.594a9.496 9.496 0 0 0-1.931-3.19l-.539-.27h-.045c-.06 0-.105-.014-.135-.044Zm27.627 13.926a.99.99 0 0 0-.314.045 3.94 3.94 0 0 1-2.157-.63c-.629-.419-1.093-.928-1.392-1.527v-.045c-.03 0-.09.075-.18.225-.689.839-1.378 1.438-2.066 1.797-.689.36-1.483.539-2.381.539a11.46 11.46 0 0 1-3.369-.494 7.836 7.836 0 0 1-2.83-1.528c-.809-.688-1.468-1.542-1.977-2.56-.479-1.048-.719-2.276-.719-3.684 0-1.377.12-2.815.36-4.312.269-1.498.464-2.875.584-4.133.149-.569.404-.988.763-1.258.39-.27.764-.404 1.123-.404.509 0 .929.18 1.258.539.36.33.539.839.539 1.527-.06.42-.15.914-.269 1.483-.09.539-.18 1.138-.27 1.797a146.2 146.2 0 0 0-.269 1.976c-.06.689-.09 1.363-.09 2.022 0 .659.105 1.317.314 1.976a7.09 7.09 0 0 0 .854 1.797c.389.51.823.928 1.302 1.258.48.33.989.494 1.528.494.359 0 .734-.03 1.123-.09s.764-.254 1.123-.584c.389-.36.749-.883 1.078-1.572.329-.689.584-1.662.764-2.92-.03-.48-.06-.913-.09-1.303v-1.078l-.045-6.244c.12-.51.329-.898.629-1.168a2.28 2.28 0 0 1 1.168-.494c.898 0 1.527.539 1.887 1.617 0 .33-.015.674-.045 1.033v.989c0 .898.03 1.782.089 2.65.06.839.09 1.692.09 2.56v.899c0 .27-.015.54-.045.809.12.718.285 1.407.495 2.066.239.659.524 1.228.853 1.707.09-.03.24-.045.449-.045.479 0 .884.18 1.213.54.36.358.539.868.539 1.526-.09.45-.194.794-.314 1.034-.09.21-.285.479-.584.808l-.719.36Zm5.885-1.483c0-.808.015-1.647.045-2.515.06-.869.164-1.692.314-2.471l.315-3.324.404-2.426c.09-.39.135-.749.135-1.078 0-.36-.075-.734-.225-1.123-.12-.39-.464-.584-1.033-.584-.24 0-.479-.06-.719-.18a4.63 4.63 0 0 1-.584-.494 4.13 4.13 0 0 1-.449-.629 1.489 1.489 0 0 1-.135-.584c0-.36.18-.749.539-1.168.36-.42.854-.629 1.483-.629 1.557.15 2.695.584 3.414 1.303.718.719 1.078 1.602 1.078 2.65.898-.629 1.946-1.093 3.144-1.392 1.198-.33 2.621-.554 4.268-.674.659 0 1.168.18 1.527.539.36.33.539.749.539 1.258 0 .449-.149.853-.449 1.213-.299.33-.704.539-1.213.629-1.377.09-2.545.24-3.504.449-.958.21-1.767.554-2.425 1.033-.659.45-1.168 1.063-1.528 1.842-.359.778-.629 1.782-.808 3.01l-.135.673v1.842l-.09 1.393c0 .449-.03.913-.09 1.392l-.135.809-.269.719c-.479.569-1.033.853-1.662.853-1.078 0-1.662-.629-1.752-1.886v-.45Zm32.838-16.262c.03.15.045.285.045.405a.99.99 0 0 1 .045.314c0 .48-.18.914-.54 1.303-.329.39-.748.584-1.257.584-.27 0-.48-.045-.629-.135a3.9 3.9 0 0 1-.405-.36 6.604 6.604 0 0 0-.494-.538c-.179-.21-.464-.434-.853-.674l-.809-.27a4.416 4.416 0 0 0-1.303-.18c-.958 0-1.796.24-2.515.72a6.397 6.397 0 0 0-1.842 1.752 9.178 9.178 0 0 0-1.123 2.38 9.43 9.43 0 0 0-.359 2.516c0 .898.134 1.737.404 2.516a6.176 6.176 0 0 0 1.258 1.976c.569.54 1.243.973 2.021 1.303.809.33 1.707.494 2.696.494.598 0 1.197-.075 1.796-.225a4.127 4.127 0 0 0 1.618-.808l.134-.18c.36-.539.854-.809 1.483-.809.239 0 .524.046.853.135l.18.09c.629.51.943 1.033.943 1.572 0 .66-.254 1.228-.763 1.707a6.777 6.777 0 0 1-1.842 1.213c-.719.3-1.483.524-2.291.674-.779.15-1.438.225-1.977.225-1.437 0-2.77-.225-3.998-.674a10.425 10.425 0 0 1-3.234-1.977c-.899-.868-1.617-1.916-2.156-3.144-.51-1.228-.764-2.62-.764-4.178 0-1.407.24-2.77.719-4.088a11.298 11.298 0 0 1 2.021-3.504 10.07 10.07 0 0 1 3.1-2.515c1.228-.63 2.59-.944 4.088-.944a6.68 6.68 0 0 1 3.099.764c1.019.48 1.902 1.333 2.651 2.56Zm8.131 5.706c-.06.03-.09.06-.09.09h.09c.209 0 .419.06.628.18.21.089.39.209.539.358.15.12.27.24.36.36.12.09.195.135.224.135.45.21.944.314 1.483.314.868 0 1.602-.12 2.201-.36.599-.269.899-.898.899-1.886-.18-.599-.39-1.093-.629-1.482-.21-.39-.569-.764-1.079-1.123l-.943-.405h-.629c-.239 0-.554.06-.943.18a6.48 6.48 0 0 0-1.168.494c-.12.18-.24.45-.359.809-.12.33-.225.659-.315.988a19.6 19.6 0 0 0-.225.898c-.029.27-.044.42-.044.45Zm.359 4.357-.135-.494c.36 1.587 1.228 2.89 2.606 3.908.299.24.673.45 1.123.629.479.18.943.344 1.392.494.479.15.899.27 1.258.36.359.06.584.09.674.09.299-.27.674-.405 1.123-.405.539.06.958.285 1.258.674.299.36.449.749.449 1.168 0 .659-.314 1.183-.943 1.572-.599.42-1.243.629-1.932.629-1.467 0-2.86-.3-4.178-.898a11.034 11.034 0 0 1-3.459-2.336 12.631 12.631 0 0 1-2.426-3.414 10.65 10.65 0 0 1-.988-4.088c0-.989.075-2.052.225-3.19a9.861 9.861 0 0 1 .943-3.144 6.584 6.584 0 0 1 2.067-2.471c.928-.659 2.156-.988 3.683-.988.958 0 1.857.21 2.695.629a6.38 6.38 0 0 1 2.157 1.617 7.774 7.774 0 0 1 1.482 2.38c.36.87.539 1.783.539 2.74 0 .87-.165 1.633-.494 2.292a4.617 4.617 0 0 1-1.258 1.662c-.539.42-1.183.749-1.931.988a8.146 8.146 0 0 1-2.291.315c-.33 0-.704-.03-1.123-.09-.39-.06-.764-.12-1.124-.18a36.39 36.39 0 0 0-.943-.224c-.239-.09-.389-.165-.449-.225Zm24.572-11.23c.479.15.839.404 1.078.763.24.36.36.719.36 1.078 0 .51-.18.944-.539 1.303-.36.33-.794.494-1.303.494-.15 0-.27-.015-.36-.045a15.935 15.935 0 0 0-1.751-.404 6.853 6.853 0 0 0-2.92-.045c-.45.09-.929.21-1.438.36l-.045.044a7.485 7.485 0 0 0 1.842 2.291c.779.66 1.587 1.333 2.426 2.022a26.764 26.764 0 0 1 2.381 2.111 6.814 6.814 0 0 1 1.707 2.606c.149.389.224.793.224 1.213 0 .629-.12 1.287-.359 1.976a5.946 5.946 0 0 1-1.078 1.887c-.449.569-1.033 1.033-1.752 1.393-.719.389-1.572.583-2.561.583-1.108 0-2.126-.18-3.054-.539a8.057 8.057 0 0 1-2.381-1.347l-.854-.54-.404-.404c-.449-.389-.689-.868-.719-1.437v-.27c.09-.569.285-.973.584-1.213a2.28 2.28 0 0 1 1.168-.494c.599 0 1.153.315 1.662.944l1.078.584c.42.24.884.479 1.393.718.539.24 1.063.36 1.572.36.419 0 .824-.12 1.213-.36l.27-.224c.089-.27.164-.54.224-.809.09-.27.135-.524.135-.764 0-.449-.105-.823-.314-1.123a2.588 2.588 0 0 0-.764-.853c-.3-.27-.629-.51-.988-.719a23.79 23.79 0 0 1-1.079-.764c-.329-.24-.793-.613-1.392-1.122a33.756 33.756 0 0 1-1.752-1.797 14.458 14.458 0 0 1-1.572-2.067c-.42-.748-.629-1.437-.629-2.066 0-.749.224-1.378.674-1.887a4.615 4.615 0 0 1 1.662-1.258 7.263 7.263 0 0 1 2.066-.674c.719-.15 1.333-.224 1.842-.224.838 0 1.587.06 2.246.18.689.12 1.423.299 2.201.539Z" fill="#EEEEF0"/></svg>