<svg width="392" height="273" viewBox="0 0 392 273" fill="none" xmlns="http://www.w3.org/2000/svg"><g clip-path="url(#clip0_1_5)"><path d="M156.57 222.461C156.57 214.068 156.629 205.744 157.196 197.368C157.414 194.145 157.052 190.104 158.178 187.009C158.266 186.767 160.755 191.304 160.946 191.653C163.283 195.929 165.702 200.156 168.492 204.155C168.811 204.612 172.117 208.184 169.697 207.816C162.003 206.645 154.638 204.418 146.837 203.976C144.164 203.825 148.708 201.333 149.159 201.029C153.713 197.958 158.313 195.098 163.446 193.082C166.548 191.863 170.255 190.156 173.582 189.644C174.055 189.571 171.829 193.72 171.662 194.064C167.841 201.95 162.644 210.91 156.749 217.46C155.679 218.649 154.963 220.052 154.963 221.657" stroke="#EEEEF0" stroke-width="3" stroke-linecap="round"/><path d="M311.722 92.8427C311.722 89.0903 313.129 85.3896 313.955 81.7696C314.635 78.7876 314.609 71.5608 316.946 69.2231C318.256 67.9137 318.172 72.7244 318.955 74.4024C319.997 76.634 321.228 79.8958 321.367 82.3947C321.462 84.1088 322.982 88.7433 321.768 87.5294C318.638 84.3993 314.087 78.8797 309.668 77.6172C308.091 77.1665 309.686 76.8833 310.561 76.7242C316.624 75.6218 322.871 75.2197 329.046 75.1615C331.033 75.1427 336.982 74.5248 332.618 76.7689C330.075 78.0767 327.932 79.9158 325.385 81.1892C319.809 83.9771 313.908 86.0595 310.919 92.039" stroke="#EEEEF0" stroke-width="3" stroke-linecap="round"/><path d="M38.0742 11.7891C38.1732 11.987 38.2227 12.6797 38.2227 13.8672C38.2721 15.0547 38.2721 16.4896 38.2227 18.1719C38.2227 19.8542 38.1732 21.6602 38.0742 23.5898C37.9753 25.4701 37.8516 27.2513 37.7031 28.9336C37.6042 29.8737 37.431 31.2839 37.1836 33.1641C36.9857 35.0443 36.7383 37.1224 36.4414 39.3984C36.1445 41.6745 35.8229 44.0247 35.4766 46.4492C35.1797 48.8242 34.8828 51.026 34.5859 53.0547C34.2891 55.0339 34.0169 56.6914 33.7695 58.0273C33.5716 59.3633 33.4232 60.0807 33.3242 60.1797C33.1263 60.3281 32.8047 60.6992 32.3594 61.293C31.9141 61.8372 31.4193 62.4062 30.875 63C30.3802 63.5443 29.9102 63.9896 29.4648 64.3359C29.0195 64.6823 28.7227 64.7318 28.5742 64.4844C28.4753 63.9896 28.4258 62.4557 28.4258 59.8828C28.4258 58.7943 28.4258 57.4336 28.4258 55.8008C28.4753 54.1185 28.5247 52.0898 28.5742 49.7148C28.6732 47.3398 28.7969 44.569 28.9453 41.4023C29.0938 38.2357 29.2669 34.5742 29.4648 30.418C28.4753 33.7826 27.5846 36.7513 26.793 39.3242C26.0508 41.8971 25.3828 44.1484 24.7891 46.0781C24.2448 47.9583 23.7747 49.5664 23.3789 50.9023C22.9831 52.1888 22.6367 53.2526 22.3398 54.0938C21.6966 56.0729 21.276 57.2357 21.0781 57.582C20.8802 57.6315 20.5586 57.4831 20.1133 57.1367C19.7174 56.7904 19.2474 56.2956 18.7031 55.6523C18.2083 54.9596 17.6888 54.1432 17.1445 53.2031C16.6497 52.263 16.2292 51.224 15.8828 50.0859C15.5365 49.0469 15.0911 47.6615 14.5469 45.9297C14.0521 44.4453 13.4089 42.5156 12.6172 40.1406C11.8255 37.7161 10.8607 34.6979 9.72266 31.0859C10.0195 35.1432 10.2669 38.7057 10.4648 41.7734C10.6628 44.8411 10.8112 47.513 10.9102 49.7891C11.0586 52.0651 11.1576 53.9948 11.207 55.5781C11.306 57.112 11.3555 58.3984 11.3555 59.4375C11.4049 61.8125 11.3307 63.1732 11.1328 63.5195C10.638 63.5195 10.0938 63.2969 9.5 62.8516C8.95573 62.3568 8.41146 61.7878 7.86719 61.1445C7.3724 60.4518 6.92708 59.7839 6.53125 59.1406C6.1849 58.4974 5.98698 58.0273 5.9375 57.7305C5.88802 57.5326 5.73958 56.6172 5.49219 54.9844C5.24479 53.3516 4.94792 51.2734 4.60156 48.75C4.30469 46.1771 3.95833 43.3073 3.5625 40.1406C3.21615 36.9245 2.86979 33.6589 2.52344 30.3438C2.22656 27.0286 1.97917 23.8125 1.78125 20.6953C1.58333 17.5286 1.48438 14.7083 1.48438 12.2344C1.48438 11.8385 1.97917 11.319 2.96875 10.6758C3.95833 9.98307 5.07161 9.33984 6.30859 8.74609C7.59505 8.10286 8.78255 7.55859 9.87109 7.11328C10.9596 6.61849 11.6276 6.37109 11.875 6.37109C12.0729 6.37109 12.2708 6.9401 12.4688 8.07812C12.7161 9.21615 12.9883 10.651 13.2852 12.3828C13.582 14.1146 13.9036 16.0443 14.25 18.1719C14.5964 20.2995 14.9922 22.3281 15.4375 24.2578C15.7839 26.237 16.2044 28.2904 16.6992 30.418C17.0951 32.2487 17.5404 34.2773 18.0352 36.5039C18.5794 38.681 19.1732 40.8086 19.8164 42.8867C20.5091 39.8685 21.1276 37.1471 21.6719 34.7227C22.2656 32.2487 22.7852 30.1458 23.2305 28.4141C23.7747 26.3854 24.2448 24.5794 24.6406 22.9961C25.5312 19.1367 26.3971 16.0938 27.2383 13.8672C28.1289 11.6406 28.6979 10.3294 28.9453 9.93359C29.0938 9.73568 29.6133 9.6862 30.5039 9.78516C31.444 9.88411 32.4583 10.0573 33.5469 10.3047C34.6354 10.5026 35.625 10.75 36.5156 11.0469C37.4557 11.3438 37.9753 11.5911 38.0742 11.7891ZM58.9297 21.4375C59.0781 21.5365 59.2018 22.1797 59.3008 23.3672C59.3997 24.5547 59.474 26.1133 59.5234 28.043C59.6224 29.9232 59.6719 32.0755 59.6719 34.5C59.6719 36.9245 59.6719 39.4232 59.6719 41.9961C59.6719 44.569 59.6471 47.1172 59.5977 49.6406C59.5977 52.1146 59.5482 54.3906 59.4492 56.4688C59.3997 58.4974 59.3255 60.2292 59.2266 61.6641C59.1771 63.099 59.1029 64.0143 59.0039 64.4102C58.9049 64.707 58.6081 65.1523 58.1133 65.7461C57.668 66.3893 57.1237 67.0326 56.4805 67.6758C55.8372 68.319 55.1693 68.888 54.4766 69.3828C53.8333 69.9271 53.2891 70.2734 52.8438 70.4219C51.9531 70.7188 50.9635 70.6693 49.875 70.2734C48.7865 69.8776 47.7474 69.3581 46.7578 68.7148C45.8177 68.0716 44.9766 67.3789 44.2344 66.6367C43.5417 65.944 43.1211 65.4492 42.9727 65.1523C42.8242 64.8555 42.6758 64.4102 42.5273 63.8164C42.4284 63.2721 42.3542 62.7279 42.3047 62.1836C42.2552 61.5898 42.2552 61.0951 42.3047 60.6992C42.4036 60.2539 42.5768 60.0312 42.8242 60.0312C43.0221 60.0312 43.5417 60.2539 44.3828 60.6992C45.2734 61.1445 46.2135 61.6146 47.2031 62.1094C48.1927 62.5547 49.1081 62.9258 49.9492 63.2227C50.7904 63.5195 51.3099 63.4948 51.5078 63.1484C51.7057 62.7526 51.9036 61.6888 52.1016 59.957C52.2995 58.1758 52.4974 56.0234 52.6953 53.5C50.9635 54.0938 49.3802 54.4896 47.9453 54.6875C46.5599 54.8359 45.3971 54.5885 44.457 53.9453C44.0117 53.6484 43.5417 53.1289 43.0469 52.3867C42.6016 51.6445 42.181 50.8034 41.7852 49.8633C41.4388 48.8737 41.1419 47.8346 40.8945 46.7461C40.6471 45.6081 40.5234 44.5443 40.5234 43.5547C40.5234 42.862 40.5977 41.8724 40.7461 40.5859C40.944 39.2995 41.1914 37.8893 41.4883 36.3555C41.7852 34.8216 42.082 33.2383 42.3789 31.6055C42.7253 29.9727 43.0469 28.4883 43.3438 27.1523C43.6901 25.8164 43.9622 24.7031 44.1602 23.8125C44.4076 22.8724 44.556 22.3529 44.6055 22.2539C44.7044 22.1055 44.9518 22.0312 45.3477 22.0312C45.7435 21.9818 46.1641 22.0065 46.6094 22.1055C47.0547 22.1549 47.4753 22.2786 47.8711 22.4766C48.2669 22.6745 48.5143 22.8971 48.6133 23.1445C48.6628 23.3424 48.6628 23.9609 48.6133 25C48.6133 26.0391 48.5391 27.276 48.3906 28.7109C48.2917 30.1458 48.168 31.7044 48.0195 33.3867C47.9206 35.0195 47.7969 36.5781 47.6484 38.0625C47.5495 39.4974 47.4505 40.7344 47.3516 41.7734C47.2526 42.8125 47.2031 43.431 47.2031 43.6289C47.2031 44.4206 47.2773 45.1875 47.4258 45.9297C47.6237 46.6224 47.8464 47.2409 48.0938 47.7852C48.3906 48.2799 48.6875 48.6758 48.9844 48.9727C49.2812 49.2695 49.5534 49.3685 49.8008 49.2695C50.6419 49.1211 51.4089 48.9232 52.1016 48.6758C52.4479 48.5273 52.7695 48.3789 53.0664 48.2305C53.2148 45.806 53.3633 43.332 53.5117 40.8086C53.6602 38.2357 53.7839 35.8854 53.8828 33.7578C53.9818 31.6302 54.056 29.8242 54.1055 28.3398C54.2044 26.8555 54.2539 25.9154 54.2539 25.5195C54.2539 25.0742 54.4518 24.5794 54.8477 24.0352C55.2435 23.4414 55.6888 22.9219 56.1836 22.4766C56.6784 22.0312 57.1732 21.7096 57.668 21.5117C58.2122 21.2643 58.6328 21.2396 58.9297 21.4375ZM106.801 10.9727C106.9 11.1706 106.949 11.8633 106.949 13.0508C106.999 14.2383 106.999 15.6732 106.949 17.3555C106.949 19.0378 106.9 20.8438 106.801 22.7734C106.702 24.6536 106.578 26.4349 106.43 28.1172C106.133 31.8776 105.786 35.5885 105.391 39.25C104.995 42.9115 104.599 46.2018 104.203 49.1211C103.857 52.0404 103.51 54.4401 103.164 56.3203C102.867 58.151 102.694 59.1654 102.645 59.3633C102.546 59.6107 102.323 59.9818 101.977 60.4766C101.63 60.9714 101.259 61.4661 100.863 61.9609C100.467 62.4062 100.072 62.8021 99.6758 63.1484C99.3294 63.4948 99.0573 63.668 98.8594 63.668C98.4635 63.3216 97.7461 61.9609 96.707 59.5859C96.2617 58.5469 95.7174 57.2604 95.0742 55.7266C94.431 54.1432 93.6888 52.2135 92.8477 49.9375C92.0065 47.6615 91.0169 44.9896 89.8789 41.9219C88.7904 38.8047 87.5534 35.1927 86.168 31.0859C86.4648 35.1432 86.7122 38.7057 86.9102 41.7734C87.1081 44.8411 87.2565 47.513 87.3555 49.7891C87.5039 52.0651 87.6029 53.9948 87.6523 55.5781C87.7018 57.112 87.7266 58.3984 87.7266 59.4375C87.7266 61.8125 87.6523 63.1732 87.5039 63.5195C87.0091 63.5195 86.4648 63.2969 85.8711 62.8516C85.3268 62.3568 84.8073 61.7878 84.3125 61.1445C83.8177 60.4518 83.3724 59.7839 82.9766 59.1406C82.6302 58.4974 82.4323 58.0273 82.3828 57.7305C82.3333 57.5326 82.1849 56.6172 81.9375 54.9844C81.6901 53.3516 81.3932 51.2734 81.0469 48.75C80.75 46.1771 80.4036 43.3073 80.0078 40.1406C79.6615 36.9245 79.3151 33.6589 78.9688 30.3438C78.6719 27.0286 78.4245 23.8125 78.2266 20.6953C78.0286 17.5286 77.9297 14.7083 77.9297 12.2344C77.9297 11.8385 78.4245 11.319 79.4141 10.6758C80.4036 9.98307 81.5169 9.33984 82.7539 8.74609C84.0404 8.10286 85.2279 7.55859 86.3164 7.11328C87.4049 6.61849 88.0729 6.37109 88.3203 6.37109C88.5182 6.37109 88.7161 6.9401 88.9141 8.07812C89.1615 9.21615 89.4089 10.651 89.6562 12.3828C89.9531 14.1146 90.2747 16.0443 90.6211 18.1719C91.0169 20.2995 91.4375 22.3281 91.8828 24.2578C92.2786 26.3359 92.7734 28.6862 93.3672 31.3086C93.862 33.5352 94.4805 36.207 95.2227 39.3242C96.0143 42.4414 96.9297 45.9049 97.9688 49.7148C97.9688 47.043 97.9688 44.1979 97.9688 41.1797C98.0182 38.1615 98.0677 35.168 98.1172 32.1992C98.1667 29.2305 98.2161 26.3854 98.2656 23.6641C98.3646 20.8932 98.4388 18.444 98.4883 16.3164C98.5872 14.1888 98.6615 12.4818 98.7109 11.1953C98.8099 9.90885 98.8841 9.21615 98.9336 9.11719C99.082 8.91927 99.5521 8.86979 100.344 8.96875C101.135 9.01823 102.001 9.16667 102.941 9.41406C103.882 9.61198 104.723 9.88411 105.465 10.2305C106.257 10.5273 106.702 10.7747 106.801 10.9727ZM126.988 22.4023C127.335 22.6992 127.656 23.2682 127.953 24.1094C128.299 24.9505 128.596 25.9648 128.844 27.1523C129.091 28.3398 129.314 29.6263 129.512 31.0117C129.71 32.3971 129.883 33.7578 130.031 35.0938C130.18 36.4297 130.279 37.6914 130.328 38.8789C130.427 40.0169 130.501 40.957 130.551 41.6992C130.6 42.5898 130.625 43.5299 130.625 44.5195C130.674 45.4596 130.674 46.375 130.625 47.2656C130.625 48.1068 130.576 48.8737 130.477 49.5664C130.427 50.2591 130.328 50.7786 130.18 51.125C129.883 51.8672 129.363 52.3867 128.621 52.6836C127.928 52.931 127.137 53.1042 126.246 53.2031C125.801 53.2526 125.034 53.2773 123.945 53.2773C122.906 53.2279 121.768 53.1784 120.531 53.1289C119.344 53.0299 118.206 52.931 117.117 52.832C116.029 52.7331 115.212 52.6341 114.668 52.5352C113.579 52.2878 112.788 51.9661 112.293 51.5703C111.848 51.1745 111.402 50.6055 110.957 49.8633C110.809 49.5664 110.685 48.8242 110.586 47.6367C110.487 46.3997 110.413 44.9401 110.363 43.2578C110.363 41.526 110.388 39.6706 110.438 37.6914C110.487 35.7122 110.561 33.832 110.66 32.0508C110.809 30.2695 110.957 28.7109 111.105 27.375C111.303 26.0391 111.551 25.1484 111.848 24.7031C112.342 24.0104 113.184 23.3672 114.371 22.7734C115.608 22.1797 116.721 21.7096 117.711 21.3633C118.206 21.2148 118.849 21.1159 119.641 21.0664C120.482 20.9674 121.348 20.9674 122.238 21.0664C123.178 21.1159 124.069 21.2643 124.91 21.5117C125.751 21.7096 126.444 22.0065 126.988 22.4023ZM122.832 45.4102C122.931 45.2122 123.03 44.6185 123.129 43.6289C123.277 42.5898 123.376 41.3529 123.426 39.918C123.525 38.4831 123.574 36.9492 123.574 35.3164C123.624 33.6836 123.648 32.1745 123.648 30.7891C123.648 29.4036 123.599 28.2409 123.5 27.3008C123.401 26.3112 123.277 25.7422 123.129 25.5938C122.882 25.3958 122.51 25.3216 122.016 25.3711C121.57 25.3711 121.1 25.4453 120.605 25.5938C120.111 25.6927 119.665 25.8411 119.27 26.0391C118.874 26.1875 118.602 26.3359 118.453 26.4844C117.81 27.0286 117.464 27.9193 117.414 29.1562C117.414 29.5026 117.365 30.4922 117.266 32.125C117.216 33.7083 117.191 35.4401 117.191 37.3203C117.191 39.151 117.216 40.8581 117.266 42.4414C117.365 44.0247 117.538 44.9896 117.785 45.3359C118.033 45.6823 118.379 45.9544 118.824 46.1523C119.319 46.3008 119.814 46.375 120.309 46.375C120.853 46.375 121.348 46.3008 121.793 46.1523C122.288 45.9544 122.634 45.707 122.832 45.4102ZM150.441 24.8516C150.491 25 150.491 25.4206 150.441 26.1133C150.392 26.7565 150.293 27.4987 150.145 28.3398C150.046 29.1315 149.922 29.8737 149.773 30.5664C149.625 31.2096 149.501 31.6055 149.402 31.7539C148.908 31.8034 148.413 31.8281 147.918 31.8281C147.423 31.7786 146.953 31.7539 146.508 31.7539H144.949C144.9 35.0195 144.826 38.2604 144.727 41.4766C144.628 44.6927 144.504 47.5872 144.355 50.1602C144.207 52.6836 144.034 54.737 143.836 56.3203C143.688 57.9036 143.539 58.7201 143.391 58.7695C143.044 58.819 142.648 58.6706 142.203 58.3242C141.758 57.9779 141.312 57.5573 140.867 57.0625C140.471 56.5182 140.1 55.974 139.754 55.4297C139.457 54.8359 139.284 54.3164 139.234 53.8711C138.987 50.8529 138.764 47.9831 138.566 45.2617C138.368 42.4909 138.22 40.0417 138.121 37.9141C137.923 35.4401 137.799 33.1393 137.75 31.0117C137.206 30.9622 136.661 30.888 136.117 30.7891C135.622 30.6901 135.103 30.5911 134.559 30.4922C134.064 30.3932 133.544 30.2943 133 30.1953C132.901 30.0964 132.777 29.8737 132.629 29.5273C132.48 29.1315 132.332 28.7109 132.184 28.2656C132.085 27.8203 131.986 27.3997 131.887 27.0039C131.788 26.5586 131.738 26.237 131.738 26.0391C131.738 25.8906 132.283 25.7422 133.371 25.5938C134.509 25.4453 135.895 25.3216 137.527 25.2227C137.428 22.6003 137.354 20.3242 137.305 18.3945C137.305 16.4154 137.379 15.0794 137.527 14.3867C137.676 13.4466 138.072 12.556 138.715 11.7148C139.408 10.8242 140.125 10.0573 140.867 9.41406C141.659 8.77083 142.376 8.30078 143.02 8.00391C143.712 7.65755 144.158 7.55859 144.355 7.70703C144.504 7.80599 144.628 8.32552 144.727 9.26562C144.826 10.1562 144.9 11.3685 144.949 12.9023C144.999 14.4362 145.023 16.2422 145.023 18.3203C145.023 20.349 145.023 22.5013 145.023 24.7773C146.508 24.6784 147.77 24.6536 148.809 24.7031C149.848 24.7031 150.392 24.7526 150.441 24.8516ZM158.605 41.5508C159.397 41.2539 160.288 40.9323 161.277 40.5859C162.316 40.1901 163.306 39.8438 164.246 39.5469C165.186 39.2005 166.027 38.9036 166.77 38.6562C167.512 38.4089 168.056 38.2109 168.402 38.0625C168.353 37.5182 168.279 36.8997 168.18 36.207C168.13 35.4648 168.056 34.7721 167.957 34.1289C167.858 33.4362 167.734 32.8424 167.586 32.3477C167.438 31.8529 167.289 31.556 167.141 31.457C166.745 31.3086 166.077 31.1849 165.137 31.0859C164.246 30.9375 163.306 30.9622 162.316 31.1602C161.376 31.3581 160.51 31.7292 159.719 32.2734C158.927 32.8177 158.482 33.6836 158.383 34.8711C158.284 35.6628 158.259 36.6523 158.309 37.8398C158.358 39.0273 158.457 40.2643 158.605 41.5508ZM174.711 42.7383C174.661 42.8372 174.068 43.0352 172.93 43.332C171.792 43.6289 170.431 43.9505 168.848 44.2969C167.264 44.5938 165.582 44.9154 163.801 45.2617C162.02 45.5586 160.486 45.806 159.199 46.0039C159.447 47.9831 159.743 49.7643 160.09 51.3477C160.436 52.8815 160.733 53.8464 160.98 54.2422C161.228 54.5885 161.549 54.9102 161.945 55.207C162.292 55.4544 162.712 55.7018 163.207 55.9492C163.751 56.1471 164.395 56.2956 165.137 56.3945C165.681 56.543 166.201 56.3451 166.695 55.8008C167.091 55.306 167.438 54.4401 167.734 53.2031C168.081 51.9661 168.254 50.0117 168.254 47.3398C169.788 47.0924 170.975 46.944 171.816 46.8945C172.707 46.8451 173.35 46.8451 173.746 46.8945C174.241 46.944 174.538 47.0182 174.637 47.1172C174.686 47.2656 174.686 47.6367 174.637 48.2305C174.587 48.8242 174.464 49.5664 174.266 50.457C174.117 51.2982 173.919 52.2383 173.672 53.2773C173.474 54.2669 173.227 55.2318 172.93 56.1719C172.633 57.0625 172.311 57.8789 171.965 58.6211C171.618 59.3138 171.247 59.8086 170.852 60.1055C169.664 60.9961 168.18 61.4414 166.398 61.4414C164.617 61.3919 162.861 61.1445 161.129 60.6992C159.397 60.2044 157.839 59.6354 156.453 58.9922C155.068 58.2995 154.202 57.7305 153.855 57.2852C153.608 56.9883 153.385 56.2461 153.188 55.0586C152.99 53.8216 152.816 52.3372 152.668 50.6055C152.569 48.8737 152.495 46.9688 152.445 44.8906C152.396 42.8125 152.421 40.7839 152.52 38.8047C152.668 36.8255 152.866 34.9948 153.113 33.3125C153.41 31.6302 153.806 30.2695 154.301 29.2305C155.043 27.7461 156.255 26.5339 157.938 25.5938C159.62 24.6536 161.401 24.0104 163.281 23.6641C165.161 23.3177 166.943 23.2682 168.625 23.5156C170.357 23.763 171.643 24.3073 172.484 25.1484C172.979 25.6432 173.424 26.6328 173.82 28.1172C174.216 29.5521 174.464 31.3086 174.562 33.3867C174.562 33.5846 174.587 34.1536 174.637 35.0938C174.686 36.0339 174.711 37.0482 174.711 38.1367C174.76 39.1758 174.785 40.1654 174.785 41.1055C174.785 42.0456 174.76 42.5898 174.711 42.7383ZM201.059 26.4844C201.108 27.0286 201.009 27.8698 200.762 29.0078C200.564 30.1458 200.242 31.2839 199.797 32.4219C199.401 33.5599 198.857 34.5495 198.164 35.3906C197.521 36.2318 196.779 36.6523 195.938 36.6523C195.344 36.6523 194.849 36.1823 194.453 35.2422C194.107 34.3021 193.835 33.2135 193.637 31.9766C193.488 30.6901 193.365 29.4284 193.266 28.1914C193.167 26.9544 193.068 26.0885 192.969 25.5938C192.82 25.3464 192.523 25.1237 192.078 24.9258C191.682 24.6784 191.286 24.5547 190.891 24.5547C190.495 24.5547 190.049 24.8763 189.555 25.5195C189.06 26.1628 188.565 26.9049 188.07 27.7461C187.625 28.5872 187.229 29.4284 186.883 30.2695C186.586 31.1107 186.462 31.7292 186.512 32.125C186.512 32.4219 186.833 32.9414 187.477 33.6836C188.12 34.4258 188.911 35.3164 189.852 36.3555C190.841 37.3451 191.88 38.4336 192.969 39.6211C194.107 40.7591 195.146 41.9219 196.086 43.1094C197.026 44.2474 197.818 45.3359 198.461 46.375C199.154 47.4141 199.525 48.3047 199.574 49.0469C199.624 49.9375 199.376 51.0755 198.832 52.4609C198.337 53.8464 197.694 55.1823 196.902 56.4688C196.111 57.7552 195.27 58.8685 194.379 59.8086C193.488 60.7487 192.697 61.2435 192.004 61.293C191.311 61.3424 190.297 60.9714 188.961 60.1797C187.674 59.3385 186.363 58.3737 185.027 57.2852C183.741 56.1471 182.578 55.0339 181.539 53.9453C180.549 52.8568 179.98 52.0651 179.832 51.5703C179.684 51.125 179.585 50.5312 179.535 49.7891C179.535 49.0469 179.56 48.3047 179.609 47.5625C179.708 46.8203 179.857 46.2018 180.055 45.707C180.253 45.1628 180.5 44.8906 180.797 44.8906C181.094 44.8906 181.688 45.4102 182.578 46.4492C183.469 47.4388 184.434 48.5768 185.473 49.8633C186.512 51.1003 187.526 52.2383 188.516 53.2773C189.505 54.2669 190.223 54.7617 190.668 54.7617C190.915 54.7617 191.188 54.5885 191.484 54.2422C191.781 53.8464 192.053 53.401 192.301 52.9062C192.548 52.4115 192.746 51.9167 192.895 51.4219C193.092 50.8776 193.191 50.457 193.191 50.1602C193.142 49.7148 192.746 49.0716 192.004 48.2305C191.262 47.3893 190.322 46.4492 189.184 45.4102C188.046 44.3711 186.809 43.2826 185.473 42.1445C184.137 40.957 182.9 39.8438 181.762 38.8047C180.624 37.7656 179.684 36.8255 178.941 35.9844C178.199 35.1432 177.803 34.5 177.754 34.0547C177.704 33.6094 177.853 32.9167 178.199 31.9766C178.546 30.987 178.991 29.9232 179.535 28.7852C180.079 27.5977 180.698 26.3854 181.391 25.1484C182.133 23.9115 182.875 22.7734 183.617 21.7344C184.359 20.6953 185.077 19.8542 185.77 19.2109C186.512 18.5182 187.155 18.1719 187.699 18.1719C188.788 18.1719 190.074 18.4688 191.559 19.0625C193.092 19.6562 194.552 20.3984 195.938 21.2891C197.323 22.1302 198.51 23.0208 199.5 23.9609C200.49 24.901 201.009 25.7422 201.059 26.4844ZM235.725 60.7453L235.471 61.024C235.302 61.2267 235.041 61.4631 234.686 61.7333C234.348 62.0036 233.951 62.2738 233.495 62.544C233.056 62.8142 232.516 63.0422 231.874 63.228C231.232 63.4307 230.574 63.532 229.898 63.532C225.338 63.532 223.058 61.2773 223.058 56.768C223.058 55.8898 223.218 55.0876 223.539 54.3613C223.86 53.6182 224.274 52.9933 224.781 52.4867C225.287 51.98 225.895 51.5324 226.605 51.144C227.314 50.7387 228.023 50.4262 228.733 50.2067C229.459 49.9702 230.219 49.776 231.013 49.624C231.806 49.472 232.516 49.3707 233.141 49.32C233.766 49.2693 234.365 49.244 234.939 49.244V48.788C234.939 47.7578 234.661 47.0316 234.103 46.6093C233.563 46.1871 232.685 45.976 231.469 45.976C230.422 45.976 229.332 46.1027 228.201 46.356C227.069 46.5924 226.182 46.8796 225.541 47.2173L223.919 43.772C225.068 43.0289 226.562 42.3787 228.403 41.8213C230.244 41.2471 232.119 40.96 234.027 40.96C235.716 40.96 237.11 41.1289 238.207 41.4667C239.305 41.7876 240.192 42.3449 240.867 43.1387C241.56 43.9156 242.05 44.912 242.337 46.128C242.624 47.3271 242.767 48.8556 242.767 50.7133V61.024L243.477 63H236.535L235.725 60.7453ZM233.723 59.0733C233.943 59.0733 234.146 59.0311 234.331 58.9467C234.534 58.8453 234.686 58.7524 234.787 58.668C234.889 58.5667 234.939 58.516 234.939 58.516V52.436C233.909 52.436 233.09 52.7231 232.482 53.2973C231.874 53.8547 231.57 54.7244 231.57 55.9067C231.57 58.0178 232.288 59.0733 233.723 59.0733ZM258.345 63L254.418 52.6387L258.573 41.4667H268.073L261.435 51.4227L268.225 63H258.345ZM245.653 63V34.348L244.133 33.436V31.08L252.265 29.8133H253.911V63H245.653ZM280.108 60.7453L279.854 61.024C279.685 61.2267 279.423 61.4631 279.069 61.7333C278.731 62.0036 278.334 62.2738 277.878 62.544C277.439 62.8142 276.899 63.0422 276.257 63.228C275.615 63.4307 274.956 63.532 274.281 63.532C269.721 63.532 267.441 61.2773 267.441 56.768C267.441 55.8898 267.601 55.0876 267.922 54.3613C268.243 53.6182 268.657 52.9933 269.164 52.4867C269.67 51.98 270.278 51.5324 270.988 51.144C271.697 50.7387 272.406 50.4262 273.116 50.2067C273.842 49.9702 274.602 49.776 275.395 49.624C276.189 49.472 276.899 49.3707 277.523 49.32C278.148 49.2693 278.748 49.244 279.322 49.244V48.788C279.322 47.7578 279.044 47.0316 278.486 46.6093C277.946 46.1871 277.067 45.976 275.852 45.976C274.804 45.976 273.715 46.1027 272.584 46.356C271.452 46.5924 270.565 46.8796 269.923 47.2173L268.302 43.772C269.451 43.0289 270.945 42.3787 272.786 41.8213C274.627 41.2471 276.502 40.96 278.41 40.96C280.099 40.96 281.492 41.1289 282.59 41.4667C283.688 41.7876 284.575 42.3449 285.25 43.1387C285.943 43.9156 286.432 44.912 286.719 46.128C287.007 47.3271 287.15 48.8556 287.15 50.7133V61.024L287.859 63H280.918L280.108 60.7453ZM278.106 59.0733C278.326 59.0733 278.528 59.0311 278.714 58.9467C278.917 58.8453 279.069 58.7524 279.17 58.668C279.272 58.5667 279.322 58.516 279.322 58.516V52.436C278.292 52.436 277.473 52.7231 276.865 53.2973C276.257 53.8547 275.953 54.7244 275.953 55.9067C275.953 58.0178 276.671 59.0733 278.106 59.0733ZM29.168 110.871C29.4154 111.168 29.6628 112.009 29.9102 113.395C30.1576 114.78 30.3307 116.289 30.4297 117.922C30.5781 119.555 30.6276 121.089 30.5781 122.523C30.5781 123.958 30.4544 124.898 30.207 125.344C30.0091 125.641 29.5143 126.185 28.7227 126.977C27.931 127.719 27.0156 128.56 25.9766 129.5C24.9375 130.44 23.849 131.38 22.7109 132.32C21.6224 133.211 20.6576 133.978 19.8164 134.621C20.2122 135.413 20.707 136.452 21.3008 137.738C21.8945 138.975 22.5378 140.311 23.2305 141.746C23.9232 143.132 24.5911 144.566 25.2344 146.051C25.9271 147.535 26.5456 148.896 27.0898 150.133C27.6341 151.32 28.0794 152.335 28.4258 153.176C28.7721 153.967 28.9453 154.438 28.9453 154.586C28.9453 154.833 28.8216 155.18 28.5742 155.625C28.3763 156.07 28.1042 156.491 27.7578 156.887C27.4115 157.233 27.0404 157.53 26.6445 157.777C26.2487 158.025 25.8776 158.074 25.5312 157.926C25.3333 157.876 24.9622 157.48 24.418 156.738C23.8737 155.947 23.2057 154.982 22.4141 153.844C21.6719 152.656 20.8307 151.32 19.8906 149.836C19 148.352 18.0846 146.867 17.1445 145.383C16.2044 143.849 15.3138 142.389 14.4727 141.004C13.6315 139.569 12.8893 138.307 12.2461 137.219C12.1471 142.365 12.0234 146.323 11.875 149.094C11.776 151.865 11.7018 153.893 11.6523 155.18C11.5534 156.714 11.4544 157.579 11.3555 157.777C11.207 157.777 10.8854 157.579 10.3906 157.184C9.89583 156.738 9.3763 156.219 8.83203 155.625C8.28776 155.031 7.76823 154.438 7.27344 153.844C6.82812 153.25 6.55599 152.805 6.45703 152.508C6.35807 151.865 6.20964 150.009 6.01172 146.941C5.91276 145.605 5.8138 143.948 5.71484 141.969C5.61589 139.99 5.49219 137.59 5.34375 134.77C5.24479 131.949 5.09635 128.634 4.89844 124.824C4.70052 121.014 4.5026 116.635 4.30469 111.688C3.41406 111.638 2.69661 111.638 2.15234 111.688C1.60807 111.688 1.1875 111.712 0.890625 111.762C0.59375 111.811 0.371094 111.836 0.222656 111.836C0.0742188 111.786 -0.0494792 111.663 -0.148438 111.465C-0.346354 111.069 -0.494792 110.401 -0.59375 109.461C-0.692708 108.471 -0.742188 107.531 -0.742188 106.641C-0.742188 105.651 -0.59375 104.661 -0.296875 103.672C-0.0494792 102.682 0.272135 102.064 0.667969 101.816C0.865885 101.668 1.55859 101.693 2.74609 101.891C3.93359 102.039 5.24479 102.237 6.67969 102.484C8.11458 102.732 9.47526 103.004 10.7617 103.301C12.0977 103.598 12.9635 103.796 13.3594 103.895C13.7057 103.993 14.2747 104.167 15.0664 104.414C15.8581 104.612 16.7734 104.909 17.8125 105.305C18.8516 105.651 19.9401 106.047 21.0781 106.492C22.2656 106.938 23.3789 107.408 24.418 107.902C25.457 108.397 26.3971 108.892 27.2383 109.387C28.0794 109.882 28.7227 110.376 29.168 110.871ZM12.4688 131.801C12.9141 131.553 13.5078 131.083 14.25 130.391C14.9922 129.648 15.7839 128.832 16.625 127.941C17.5156 127.001 18.4062 126.036 19.2969 125.047C20.1875 124.008 20.9792 123.043 21.6719 122.152C22.4141 121.262 23.0078 120.495 23.4531 119.852C23.8984 119.208 24.1211 118.788 24.1211 118.59C24.1211 118.243 23.7995 117.848 23.1562 117.402C22.5625 116.908 21.7708 116.413 20.7812 115.918C19.7917 115.423 18.6289 114.953 17.293 114.508C15.957 114.013 14.5964 113.592 13.2109 113.246L12.4688 131.801ZM39.4844 136.551C40.276 136.254 41.1667 135.932 42.1562 135.586C43.1953 135.19 44.1849 134.844 45.125 134.547C46.0651 134.201 46.9062 133.904 47.6484 133.656C48.3906 133.409 48.9349 133.211 49.2812 133.062C49.2318 132.518 49.1576 131.9 49.0586 131.207C49.0091 130.465 48.9349 129.772 48.8359 129.129C48.737 128.436 48.6133 127.842 48.4648 127.348C48.3164 126.853 48.168 126.556 48.0195 126.457C47.6237 126.309 46.9557 126.185 46.0156 126.086C45.125 125.938 44.1849 125.962 43.1953 126.16C42.2552 126.358 41.3893 126.729 40.5977 127.273C39.806 127.818 39.3607 128.684 39.2617 129.871C39.1628 130.663 39.138 131.652 39.1875 132.84C39.237 134.027 39.3359 135.264 39.4844 136.551ZM55.5898 137.738C55.5404 137.837 54.9466 138.035 53.8086 138.332C52.6706 138.629 51.3099 138.951 49.7266 139.297C48.1432 139.594 46.4609 139.915 44.6797 140.262C42.8984 140.559 41.3646 140.806 40.0781 141.004C40.3255 142.983 40.6224 144.764 40.9688 146.348C41.3151 147.882 41.612 148.846 41.8594 149.242C42.1068 149.589 42.4284 149.91 42.8242 150.207C43.1706 150.454 43.5911 150.702 44.0859 150.949C44.6302 151.147 45.2734 151.296 46.0156 151.395C46.5599 151.543 47.0794 151.345 47.5742 150.801C47.9701 150.306 48.3164 149.44 48.6133 148.203C48.9596 146.966 49.1328 145.012 49.1328 142.34C50.6667 142.092 51.8542 141.944 52.6953 141.895C53.5859 141.845 54.2292 141.845 54.625 141.895C55.1198 141.944 55.4167 142.018 55.5156 142.117C55.5651 142.266 55.5651 142.637 55.5156 143.23C55.4661 143.824 55.3424 144.566 55.1445 145.457C54.9961 146.298 54.7982 147.238 54.5508 148.277C54.3529 149.267 54.1055 150.232 53.8086 151.172C53.5117 152.062 53.1901 152.879 52.8438 153.621C52.4974 154.314 52.1263 154.809 51.7305 155.105C50.543 155.996 49.0586 156.441 47.2773 156.441C45.4961 156.392 43.7396 156.145 42.0078 155.699C40.276 155.204 38.7174 154.635 37.332 153.992C35.9466 153.299 35.0807 152.73 34.7344 152.285C34.487 151.988 34.2643 151.246 34.0664 150.059C33.8685 148.822 33.6953 147.337 33.5469 145.605C33.4479 143.874 33.3737 141.969 33.3242 139.891C33.2747 137.812 33.2995 135.784 33.3984 133.805C33.5469 131.826 33.7448 129.995 33.9922 128.312C34.2891 126.63 34.6849 125.27 35.1797 124.23C35.9219 122.746 37.1341 121.534 38.8164 120.594C40.4987 119.654 42.2799 119.01 44.1602 118.664C46.0404 118.318 47.8216 118.268 49.5039 118.516C51.2357 118.763 52.5221 119.307 53.3633 120.148C53.8581 120.643 54.3034 121.633 54.6992 123.117C55.0951 124.552 55.3424 126.309 55.4414 128.387C55.4414 128.585 55.4661 129.154 55.5156 130.094C55.5651 131.034 55.5898 132.048 55.5898 133.137C55.6393 134.176 55.6641 135.165 55.6641 136.105C55.6641 137.046 55.6393 137.59 55.5898 137.738ZM81.9375 121.484C81.987 122.029 81.888 122.87 81.6406 124.008C81.4427 125.146 81.1211 126.284 80.6758 127.422C80.2799 128.56 79.7357 129.549 79.043 130.391C78.3997 131.232 77.6576 131.652 76.8164 131.652C76.2227 131.652 75.7279 131.182 75.332 130.242C74.9857 129.302 74.7135 128.214 74.5156 126.977C74.3672 125.69 74.2435 124.428 74.1445 123.191C74.0456 121.954 73.9466 121.089 73.8477 120.594C73.6992 120.346 73.4023 120.124 72.957 119.926C72.5612 119.678 72.1654 119.555 71.7695 119.555C71.3737 119.555 70.9284 119.876 70.4336 120.52C69.9388 121.163 69.444 121.905 68.9492 122.746C68.5039 123.587 68.1081 124.428 67.7617 125.27C67.4648 126.111 67.3411 126.729 67.3906 127.125C67.3906 127.422 67.7122 127.941 68.3555 128.684C68.9987 129.426 69.7904 130.316 70.7305 131.355C71.7201 132.345 72.7591 133.434 73.8477 134.621C74.9857 135.759 76.0247 136.922 76.9648 138.109C77.9049 139.247 78.6966 140.336 79.3398 141.375C80.0326 142.414 80.4036 143.305 80.4531 144.047C80.5026 144.938 80.2552 146.076 79.7109 147.461C79.2161 148.846 78.5729 150.182 77.7812 151.469C76.9896 152.755 76.1484 153.868 75.2578 154.809C74.3672 155.749 73.5755 156.243 72.8828 156.293C72.1901 156.342 71.1758 155.971 69.8398 155.18C68.5534 154.339 67.2422 153.374 65.9062 152.285C64.6198 151.147 63.457 150.034 62.418 148.945C61.4284 147.857 60.8594 147.065 60.7109 146.57C60.5625 146.125 60.4635 145.531 60.4141 144.789C60.4141 144.047 60.4388 143.305 60.4883 142.562C60.5872 141.82 60.7357 141.202 60.9336 140.707C61.1315 140.163 61.3789 139.891 61.6758 139.891C61.9727 139.891 62.5664 140.41 63.457 141.449C64.3477 142.439 65.3125 143.577 66.3516 144.863C67.3906 146.1 68.4049 147.238 69.3945 148.277C70.3841 149.267 71.1016 149.762 71.5469 149.762C71.7943 149.762 72.0664 149.589 72.3633 149.242C72.6602 148.846 72.9323 148.401 73.1797 147.906C73.4271 147.411 73.625 146.917 73.7734 146.422C73.9714 145.878 74.0703 145.457 74.0703 145.16C74.0208 144.715 73.625 144.072 72.8828 143.23C72.1406 142.389 71.2005 141.449 70.0625 140.41C68.9245 139.371 67.6875 138.283 66.3516 137.145C65.0156 135.957 63.7786 134.844 62.6406 133.805C61.5026 132.766 60.5625 131.826 59.8203 130.984C59.0781 130.143 58.6823 129.5 58.6328 129.055C58.5833 128.609 58.7318 127.917 59.0781 126.977C59.4245 125.987 59.8698 124.923 60.4141 123.785C60.9583 122.598 61.5768 121.385 62.2695 120.148C63.0117 118.911 63.7539 117.773 64.4961 116.734C65.2383 115.695 65.9557 114.854 66.6484 114.211C67.3906 113.518 68.0339 113.172 68.5781 113.172C69.6667 113.172 70.9531 113.469 72.4375 114.062C73.9714 114.656 75.431 115.398 76.8164 116.289C78.2018 117.13 79.3893 118.021 80.3789 118.961C81.3685 119.901 81.888 120.742 81.9375 121.484ZM100.789 117.402C101.135 117.699 101.457 118.268 101.754 119.109C102.1 119.951 102.397 120.965 102.645 122.152C102.892 123.34 103.115 124.626 103.312 126.012C103.51 127.397 103.684 128.758 103.832 130.094C103.98 131.43 104.079 132.691 104.129 133.879C104.228 135.017 104.302 135.957 104.352 136.699C104.401 137.59 104.426 138.53 104.426 139.52C104.475 140.46 104.475 141.375 104.426 142.266C104.426 143.107 104.376 143.874 104.277 144.566C104.228 145.259 104.129 145.779 103.98 146.125C103.684 146.867 103.164 147.387 102.422 147.684C101.729 147.931 100.938 148.104 100.047 148.203C99.6016 148.253 98.8346 148.277 97.7461 148.277C96.707 148.228 95.569 148.178 94.332 148.129C93.1445 148.03 92.0065 147.931 90.918 147.832C89.8294 147.733 89.013 147.634 88.4688 147.535C87.3802 147.288 86.5885 146.966 86.0938 146.57C85.6484 146.174 85.2031 145.605 84.7578 144.863C84.6094 144.566 84.4857 143.824 84.3867 142.637C84.2878 141.4 84.2135 139.94 84.1641 138.258C84.1641 136.526 84.1888 134.671 84.2383 132.691C84.2878 130.712 84.362 128.832 84.4609 127.051C84.6094 125.27 84.7578 123.711 84.9062 122.375C85.1042 121.039 85.3516 120.148 85.6484 119.703C86.1432 119.01 86.9844 118.367 88.1719 117.773C89.4089 117.18 90.5221 116.71 91.5117 116.363C92.0065 116.215 92.6497 116.116 93.4414 116.066C94.2826 115.967 95.1484 115.967 96.0391 116.066C96.9792 116.116 97.8698 116.264 98.7109 116.512C99.5521 116.71 100.245 117.007 100.789 117.402ZM96.6328 140.41C96.7318 140.212 96.8307 139.618 96.9297 138.629C97.0781 137.59 97.1771 136.353 97.2266 134.918C97.3255 133.483 97.375 131.949 97.375 130.316C97.4245 128.684 97.4492 127.174 97.4492 125.789C97.4492 124.404 97.3997 123.241 97.3008 122.301C97.2018 121.311 97.0781 120.742 96.9297 120.594C96.6823 120.396 96.3112 120.322 95.8164 120.371C95.3711 120.371 94.901 120.445 94.4062 120.594C93.9115 120.693 93.4661 120.841 93.0703 121.039C92.6745 121.188 92.4023 121.336 92.2539 121.484C91.6107 122.029 91.2643 122.919 91.2148 124.156C91.2148 124.503 91.1654 125.492 91.0664 127.125C91.0169 128.708 90.9922 130.44 90.9922 132.32C90.9922 134.151 91.0169 135.858 91.0664 137.441C91.1654 139.025 91.3385 139.99 91.5859 140.336C91.8333 140.682 92.1797 140.954 92.625 141.152C93.1198 141.301 93.6146 141.375 94.1094 141.375C94.6536 141.375 95.1484 141.301 95.5938 141.152C96.0885 140.954 96.4349 140.707 96.6328 140.41ZM124.91 118.293C125.009 118.441 125.158 119.134 125.355 120.371C125.553 121.608 125.751 123.142 125.949 124.973C126.197 126.803 126.419 128.783 126.617 130.91C126.865 133.038 127.087 135.066 127.285 136.996C127.533 138.926 127.73 140.658 127.879 142.191C128.027 143.725 128.151 144.764 128.25 145.309C128.398 146.199 128.572 147.189 128.77 148.277C128.967 149.316 129.141 150.331 129.289 151.32C129.438 152.26 129.536 153.077 129.586 153.77C129.685 154.462 129.66 154.883 129.512 155.031C129.413 155.18 129.017 155.229 128.324 155.18C127.632 155.081 126.865 154.932 126.023 154.734C125.232 154.487 124.465 154.215 123.723 153.918C123.03 153.572 122.585 153.25 122.387 152.953C122.189 152.706 121.991 152.335 121.793 151.84C121.645 151.345 121.447 150.479 121.199 149.242C120.655 149.984 120.061 150.776 119.418 151.617C118.824 152.409 118.23 153.151 117.637 153.844C117.043 154.487 116.499 155.007 116.004 155.402C115.509 155.798 115.138 155.996 114.891 155.996C114.495 155.996 113.901 155.6 113.109 154.809C112.318 153.967 111.526 153.027 110.734 151.988C109.943 150.949 109.225 149.96 108.582 149.02C107.939 148.079 107.592 147.461 107.543 147.164C107.444 146.867 107.395 146.051 107.395 144.715C107.444 143.379 107.493 141.895 107.543 140.262C107.642 138.579 107.741 136.922 107.84 135.289C107.939 133.607 108.038 132.271 108.137 131.281C108.236 130.292 108.335 129.203 108.434 128.016C108.582 126.779 108.73 125.641 108.879 124.602C109.027 123.513 109.151 122.573 109.25 121.781C109.398 120.99 109.522 120.52 109.621 120.371C109.72 120.223 109.992 120.148 110.438 120.148C110.932 120.099 111.427 120.124 111.922 120.223C112.466 120.272 112.961 120.396 113.406 120.594C113.852 120.742 114.148 120.94 114.297 121.188C114.396 121.385 114.445 122.029 114.445 123.117C114.495 124.156 114.52 125.443 114.52 126.977C114.52 128.461 114.52 130.094 114.52 131.875C114.52 133.607 114.495 135.24 114.445 136.773C114.445 138.258 114.421 139.544 114.371 140.633C114.371 141.672 114.371 142.29 114.371 142.488C114.371 142.884 114.594 143.651 115.039 144.789C115.534 145.927 116.029 147.016 116.523 148.055L120.383 143.453C120.333 142.562 120.284 141.424 120.234 140.039C120.234 138.654 120.21 137.194 120.16 135.66C120.111 134.126 120.061 132.568 120.012 130.984C119.962 129.401 119.938 127.966 119.938 126.68C119.938 125.393 119.938 124.329 119.938 123.488C119.938 122.647 119.962 122.152 120.012 122.004C120.16 121.707 120.457 121.311 120.902 120.816C121.348 120.322 121.842 119.852 122.387 119.406C122.931 118.961 123.426 118.615 123.871 118.367C124.366 118.12 124.712 118.095 124.91 118.293ZM148.66 117.551C149.056 117.798 149.427 118.293 149.773 119.035C150.169 119.728 150.516 120.544 150.812 121.484C151.159 122.375 151.431 123.34 151.629 124.379C151.876 125.418 152.074 126.383 152.223 127.273C152.421 128.164 152.544 128.931 152.594 129.574C152.643 130.168 152.643 130.539 152.594 130.688C152.495 130.885 152.198 131.083 151.703 131.281C151.258 131.479 150.59 131.702 149.699 131.949C148.809 132.197 147.572 132.469 145.988 132.766C145.889 130.044 145.691 127.991 145.395 126.605C145.098 125.171 144.776 124.156 144.43 123.562C144.034 122.87 143.613 122.523 143.168 122.523C142.723 122.721 142.327 122.969 141.98 123.266C141.634 123.513 141.337 123.785 141.09 124.082C140.793 124.428 140.521 124.799 140.273 125.195C140.174 125.344 140.076 125.69 139.977 126.234C139.878 126.779 139.779 127.595 139.68 128.684C139.68 129.03 139.655 129.747 139.605 130.836C139.605 131.924 139.581 133.186 139.531 134.621C139.531 136.056 139.507 137.565 139.457 139.148C139.457 140.732 139.432 142.216 139.383 143.602C139.383 144.938 139.358 146.076 139.309 147.016C139.309 147.956 139.284 148.5 139.234 148.648C139.135 148.896 138.888 149.242 138.492 149.688C138.096 150.133 137.651 150.553 137.156 150.949C136.661 151.296 136.191 151.592 135.746 151.84C135.301 152.038 135.004 152.013 134.855 151.766C134.707 151.617 134.559 150.974 134.41 149.836C134.262 148.698 134.089 147.312 133.891 145.68C133.742 143.997 133.569 142.167 133.371 140.188C133.173 138.208 133 136.303 132.852 134.473C132.703 132.642 132.579 131.009 132.48 129.574C132.382 128.09 132.307 127.026 132.258 126.383C132.208 125.443 132.159 124.404 132.109 123.266C132.06 122.128 132.01 121.064 131.961 120.074C131.961 119.035 131.961 118.145 131.961 117.402C132.01 116.611 132.109 116.141 132.258 115.992C132.357 115.844 132.678 115.819 133.223 115.918C133.816 115.967 134.435 116.116 135.078 116.363C135.771 116.561 136.414 116.833 137.008 117.18C137.602 117.526 137.997 117.848 138.195 118.145C138.344 118.392 138.492 118.763 138.641 119.258C139.581 118.763 140.471 118.318 141.312 117.922C142.203 117.477 143.044 117.155 143.836 116.957C144.677 116.759 145.493 116.71 146.285 116.809C147.077 116.858 147.868 117.105 148.66 117.551ZM167.066 117.402C166.868 117.204 166.448 117.007 165.805 116.809C165.161 116.611 164.716 116.685 164.469 117.031C164.32 117.229 164.073 117.872 163.727 118.961C163.38 120.049 163.009 121.435 162.613 123.117C162.267 124.799 161.945 126.729 161.648 128.906C161.401 131.083 161.277 133.335 161.277 135.66C161.277 137.342 161.352 138.951 161.5 140.484C161.648 141.969 161.822 143.28 162.02 144.418C162.267 145.556 162.539 146.471 162.836 147.164C163.182 147.857 163.529 148.228 163.875 148.277C164.172 148.277 164.518 147.931 164.914 147.238C165.359 146.546 165.78 145.754 166.176 144.863C166.621 143.923 166.992 143.057 167.289 142.266C167.635 141.424 167.883 140.88 168.031 140.633C168.427 139.99 168.947 139.445 169.59 139C170.233 138.505 170.777 138.258 171.223 138.258C171.47 138.258 171.643 138.431 171.742 138.777C171.891 139.124 171.99 139.544 172.039 140.039C172.138 140.484 172.188 140.954 172.188 141.449C172.188 141.944 172.188 142.34 172.188 142.637C172.188 143.181 172.089 144.195 171.891 145.68C171.693 147.164 171.396 148.673 171 150.207C170.654 151.741 170.233 153.102 169.738 154.289C169.293 155.477 168.798 156.046 168.254 155.996C167.71 155.947 166.893 155.699 165.805 155.254C164.716 154.809 163.603 154.289 162.465 153.695C161.376 153.102 160.362 152.508 159.422 151.914C158.531 151.271 157.987 150.776 157.789 150.43C157.591 150.083 157.294 149.242 156.898 147.906C156.503 146.521 156.082 144.839 155.637 142.859C155.241 140.88 154.895 138.703 154.598 136.328C154.301 133.953 154.152 131.578 154.152 129.203C154.152 126.828 154.202 124.478 154.301 122.152C154.449 119.827 154.672 117.749 154.969 115.918C155.266 114.087 155.637 112.603 156.082 111.465C156.577 110.327 157.171 109.733 157.863 109.684C159.793 109.486 161.723 109.659 163.652 110.203C165.632 110.698 167.388 111.391 168.922 112.281C170.505 113.122 171.792 114.038 172.781 115.027C173.771 115.967 174.29 116.759 174.34 117.402C174.389 118.095 174.34 119.06 174.191 120.297C174.092 121.534 173.919 122.796 173.672 124.082C173.474 125.319 173.227 126.457 172.93 127.496C172.682 128.486 172.46 129.055 172.262 129.203C171.816 129.648 171.297 130.118 170.703 130.613C170.109 131.108 169.54 131.207 168.996 130.91C168.798 130.811 168.625 130.44 168.477 129.797C168.328 129.104 168.18 128.263 168.031 127.273C167.932 126.284 167.833 125.22 167.734 124.082C167.635 122.944 167.536 121.905 167.438 120.965C167.388 119.975 167.314 119.159 167.215 118.516C167.165 117.823 167.116 117.452 167.066 117.402ZM183.246 136.551C184.038 136.254 184.928 135.932 185.918 135.586C186.957 135.19 187.947 134.844 188.887 134.547C189.827 134.201 190.668 133.904 191.41 133.656C192.152 133.409 192.697 133.211 193.043 133.062C192.993 132.518 192.919 131.9 192.82 131.207C192.771 130.465 192.697 129.772 192.598 129.129C192.499 128.436 192.375 127.842 192.227 127.348C192.078 126.853 191.93 126.556 191.781 126.457C191.385 126.309 190.717 126.185 189.777 126.086C188.887 125.938 187.947 125.962 186.957 126.16C186.017 126.358 185.151 126.729 184.359 127.273C183.568 127.818 183.122 128.684 183.023 129.871C182.924 130.663 182.9 131.652 182.949 132.84C182.999 134.027 183.098 135.264 183.246 136.551ZM199.352 137.738C199.302 137.837 198.708 138.035 197.57 138.332C196.432 138.629 195.072 138.951 193.488 139.297C191.905 139.594 190.223 139.915 188.441 140.262C186.66 140.559 185.126 140.806 183.84 141.004C184.087 142.983 184.384 144.764 184.73 146.348C185.077 147.882 185.374 148.846 185.621 149.242C185.868 149.589 186.19 149.91 186.586 150.207C186.932 150.454 187.353 150.702 187.848 150.949C188.392 151.147 189.035 151.296 189.777 151.395C190.322 151.543 190.841 151.345 191.336 150.801C191.732 150.306 192.078 149.44 192.375 148.203C192.721 146.966 192.895 145.012 192.895 142.34C194.428 142.092 195.616 141.944 196.457 141.895C197.348 141.845 197.991 141.845 198.387 141.895C198.882 141.944 199.178 142.018 199.277 142.117C199.327 142.266 199.327 142.637 199.277 143.23C199.228 143.824 199.104 144.566 198.906 145.457C198.758 146.298 198.56 147.238 198.312 148.277C198.115 149.267 197.867 150.232 197.57 151.172C197.273 152.062 196.952 152.879 196.605 153.621C196.259 154.314 195.888 154.809 195.492 155.105C194.305 155.996 192.82 156.441 191.039 156.441C189.258 156.392 187.501 156.145 185.77 155.699C184.038 155.204 182.479 154.635 181.094 153.992C179.708 153.299 178.842 152.73 178.496 152.285C178.249 151.988 178.026 151.246 177.828 150.059C177.63 148.822 177.457 147.337 177.309 145.605C177.21 143.874 177.135 141.969 177.086 139.891C177.036 137.812 177.061 135.784 177.16 133.805C177.309 131.826 177.507 129.995 177.754 128.312C178.051 126.63 178.447 125.27 178.941 124.23C179.684 122.746 180.896 121.534 182.578 120.594C184.26 119.654 186.042 119.01 187.922 118.664C189.802 118.318 191.583 118.268 193.266 118.516C194.997 118.763 196.284 119.307 197.125 120.148C197.62 120.643 198.065 121.633 198.461 123.117C198.857 124.552 199.104 126.309 199.203 128.387C199.203 128.585 199.228 129.154 199.277 130.094C199.327 131.034 199.352 132.048 199.352 133.137C199.401 134.176 199.426 135.165 199.426 136.105C199.426 137.046 199.401 137.59 199.352 137.738ZM225.699 121.484C225.749 122.029 225.65 122.87 225.402 124.008C225.204 125.146 224.883 126.284 224.438 127.422C224.042 128.56 223.497 129.549 222.805 130.391C222.161 131.232 221.419 131.652 220.578 131.652C219.984 131.652 219.49 131.182 219.094 130.242C218.747 129.302 218.475 128.214 218.277 126.977C218.129 125.69 218.005 124.428 217.906 123.191C217.807 121.954 217.708 121.089 217.609 120.594C217.461 120.346 217.164 120.124 216.719 119.926C216.323 119.678 215.927 119.555 215.531 119.555C215.135 119.555 214.69 119.876 214.195 120.52C213.701 121.163 213.206 121.905 212.711 122.746C212.266 123.587 211.87 124.428 211.523 125.27C211.227 126.111 211.103 126.729 211.152 127.125C211.152 127.422 211.474 127.941 212.117 128.684C212.76 129.426 213.552 130.316 214.492 131.355C215.482 132.345 216.521 133.434 217.609 134.621C218.747 135.759 219.786 136.922 220.727 138.109C221.667 139.247 222.458 140.336 223.102 141.375C223.794 142.414 224.165 143.305 224.215 144.047C224.264 144.938 224.017 146.076 223.473 147.461C222.978 148.846 222.335 150.182 221.543 151.469C220.751 152.755 219.91 153.868 219.02 154.809C218.129 155.749 217.337 156.243 216.645 156.293C215.952 156.342 214.938 155.971 213.602 155.18C212.315 154.339 211.004 153.374 209.668 152.285C208.382 151.147 207.219 150.034 206.18 148.945C205.19 147.857 204.621 147.065 204.473 146.57C204.324 146.125 204.225 145.531 204.176 144.789C204.176 144.047 204.201 143.305 204.25 142.562C204.349 141.82 204.497 141.202 204.695 140.707C204.893 140.163 205.141 139.891 205.438 139.891C205.734 139.891 206.328 140.41 207.219 141.449C208.109 142.439 209.074 143.577 210.113 144.863C211.152 146.1 212.167 147.238 213.156 148.277C214.146 149.267 214.863 149.762 215.309 149.762C215.556 149.762 215.828 149.589 216.125 149.242C216.422 148.846 216.694 148.401 216.941 147.906C217.189 147.411 217.387 146.917 217.535 146.422C217.733 145.878 217.832 145.457 217.832 145.16C217.783 144.715 217.387 144.072 216.645 143.23C215.902 142.389 214.962 141.449 213.824 140.41C212.686 139.371 211.449 138.283 210.113 137.145C208.777 135.957 207.54 134.844 206.402 133.805C205.264 132.766 204.324 131.826 203.582 130.984C202.84 130.143 202.444 129.5 202.395 129.055C202.345 128.609 202.493 127.917 202.84 126.977C203.186 125.987 203.632 124.923 204.176 123.785C204.72 122.598 205.339 121.385 206.031 120.148C206.773 118.911 207.516 117.773 208.258 116.734C209 115.695 209.717 114.854 210.41 114.211C211.152 113.518 211.796 113.172 212.34 113.172C213.428 113.172 214.715 113.469 216.199 114.062C217.733 114.656 219.193 115.398 220.578 116.289C221.964 117.13 223.151 118.021 224.141 118.961C225.13 119.901 225.65 120.742 225.699 121.484ZM265.077 107.232C261.885 107.333 259.428 108.549 257.705 110.88C256.033 113.211 255.197 117.239 255.197 122.964C255.197 124.839 255.375 126.156 255.729 126.916C256.084 127.625 256.261 128.031 256.261 128.132C253.525 128.132 251.473 127.575 250.105 126.46C248.788 125.295 248.129 123.395 248.129 120.76C248.129 117.163 249.016 113.895 250.789 110.956C252.563 107.967 255.375 105.56 259.225 103.736C263.127 101.912 268.067 101 274.045 101C275.261 101 276.883 101.127 278.909 101.38C282.557 101.735 285.141 101.912 286.661 101.912C289.347 101.912 291.627 101.608 293.501 101C293.349 101.456 293.071 102.469 292.665 104.04C292.26 105.56 291.525 106.877 290.461 107.992C289.448 109.056 288.055 109.765 286.281 110.12C283.292 110.12 279.745 109.639 275.641 108.676L272.449 123.8H283.545L282.329 129.424H271.233L265.077 158H254.133L265.077 107.232ZM293.424 158.304C289.675 158.304 286.711 157.341 284.532 155.416C282.353 153.491 281.264 150.451 281.264 146.296C281.264 142.851 281.973 139.025 283.392 134.82C284.811 130.615 287.091 126.992 290.232 123.952C293.373 120.861 297.325 119.316 302.088 119.316C308.573 119.316 311.816 123.369 311.816 131.476V131.552C311.968 131.603 312.247 131.628 312.652 131.628C314.324 131.628 316.249 131.197 318.428 130.336C320.607 129.424 322.583 128.335 324.356 127.068L325.04 129.12C323.571 130.691 321.645 132.033 319.264 133.148C316.933 134.212 314.375 134.972 311.588 135.428C311.183 140.039 310.144 144.067 308.472 147.512C306.8 150.957 304.647 153.617 302.012 155.492C299.377 157.367 296.515 158.304 293.424 158.304ZM296.464 151.464C297.68 151.464 298.896 150.78 300.112 149.412C301.328 147.993 302.392 146.093 303.304 143.712C304.216 141.28 304.875 138.595 305.28 135.656C303.912 135.352 303.228 134.288 303.228 132.464C303.228 130.387 304.013 129.019 305.584 128.36C305.483 126.688 305.229 125.548 304.824 124.94C304.419 124.281 303.709 123.952 302.696 123.952C301.024 123.952 299.403 125.168 297.832 127.6C296.261 130.032 294.995 132.945 294.032 136.34C293.069 139.735 292.588 142.724 292.588 145.308C292.588 147.74 292.867 149.387 293.424 150.248C293.981 151.059 294.995 151.464 296.464 151.464ZM320.895 120H331.839L330.851 124.712C332.573 123.192 334.119 122.027 335.487 121.216C336.905 120.405 338.425 120 340.047 120C341.668 120 342.935 120.557 343.847 121.672C344.809 122.787 345.291 124.129 345.291 125.7C345.291 127.169 344.809 128.461 343.847 129.576C342.884 130.691 341.541 131.248 339.819 131.248C338.704 131.248 337.944 130.995 337.539 130.488C337.184 129.931 336.905 129.145 336.703 128.132C336.551 127.473 336.399 126.992 336.247 126.688C336.095 126.384 335.816 126.232 335.411 126.232C334.347 126.232 333.435 126.46 332.675 126.916C331.965 127.321 331.028 128.056 329.863 129.12L323.783 158H312.839L320.895 120ZM26.144 229.592L18.848 201.092C15.2507 202.46 12.464 204.588 10.488 207.476C8.512 210.313 7.524 213.809 7.524 217.964C7.524 219.839 7.70133 221.156 8.056 221.916C8.41067 222.625 8.588 223.031 8.588 223.132C5.852 223.132 3.8 222.575 2.432 221.46C1.11467 220.295 0.456 218.395 0.456 215.76C0.456 212.517 1.77333 209.376 4.408 206.336C7.09333 203.245 10.5133 200.763 14.668 198.888C18.8227 196.963 22.9773 196 27.132 196C27.8413 196 28.8547 196.051 30.172 196.152L36.784 223.36L48.032 196.38H53.048L38.304 229.592L33.288 253H21.128L26.144 229.592ZM58.2249 253.304C54.4756 253.304 51.5116 252.341 49.3329 250.416C47.1542 248.491 46.0649 245.451 46.0649 241.296C46.0649 237.851 46.7742 234.025 48.1929 229.82C49.6116 225.615 51.8916 221.992 55.0329 218.952C58.1742 215.861 62.1262 214.316 66.8889 214.316C73.3742 214.316 76.6169 218.369 76.6169 226.476V226.552C76.7689 226.603 77.0476 226.628 77.4529 226.628C79.1249 226.628 81.0502 226.197 83.2289 225.336C85.4076 224.424 87.3836 223.335 89.1569 222.068L89.8409 224.12C88.3716 225.691 86.4462 227.033 84.0649 228.148C81.7342 229.212 79.1756 229.972 76.3889 230.428C75.9836 235.039 74.9449 239.067 73.2729 242.512C71.6009 245.957 69.4476 248.617 66.8129 250.492C64.1782 252.367 61.3156 253.304 58.2249 253.304ZM61.2649 246.464C62.4809 246.464 63.6969 245.78 64.9129 244.412C66.1289 242.993 67.1929 241.093 68.1049 238.712C69.0169 236.28 69.6756 233.595 70.0809 230.656C68.7129 230.352 68.0289 229.288 68.0289 227.464C68.0289 225.387 68.8142 224.019 70.3849 223.36C70.2836 221.688 70.0302 220.548 69.6249 219.94C69.2196 219.281 68.5102 218.952 67.4969 218.952C65.8249 218.952 64.2036 220.168 62.6329 222.6C61.0622 225.032 59.7956 227.945 58.8329 231.34C57.8702 234.735 57.3889 237.724 57.3889 240.308C57.3889 242.74 57.6676 244.387 58.2249 245.248C58.7822 246.059 59.7956 246.464 61.2649 246.464ZM88.0513 253.456C85.6193 253.456 83.6433 252.696 82.1233 251.176C80.654 249.656 79.9193 247.376 79.9193 244.336C79.9193 243.069 80.122 241.423 80.5273 239.396L85.6953 215H96.6393L91.1673 240.84C91.0153 241.448 90.9393 242.081 90.9393 242.74C90.9393 244.969 91.6993 246.084 93.2193 246.084C94.638 246.084 95.854 245.501 96.8673 244.336C97.8807 243.12 98.6913 241.473 99.2993 239.396L104.467 215H115.411L109.939 240.84C109.737 241.6 109.635 242.411 109.635 243.272C109.635 244.285 109.863 245.02 110.319 245.476C110.826 245.881 111.637 246.084 112.751 246.084C113.562 246.084 114.145 246.033 114.499 245.932C114.905 245.78 115.158 245.679 115.259 245.628C115.057 248.212 114.17 250.163 112.599 251.48C111.029 252.797 109.103 253.456 106.823 253.456C104.695 253.456 102.973 252.823 101.655 251.556C100.389 250.289 99.6287 248.516 99.3753 246.236C97.6527 249.023 95.8287 250.923 93.9033 251.936C92.0287 252.949 90.078 253.456 88.0513 253.456Z" fill="#EEEEF0"/> </g> <defs><clipPath id="clip0_1_5"> <rect width="392" height="273" fill="white"/> </clipPath> </defs></svg>
