<svg xmlns="http://www.w3.org/2000/svg" fill="none" viewBox="0 0 566 205"><path d="M254.57 189.461c0-8.393.059-16.717.626-25.093.218-3.223-.144-7.264.982-10.359.088-.242 2.577 4.295 2.768 4.644 2.337 4.276 4.756 8.503 7.546 12.502.319.457 3.625 4.029 1.205 3.661-7.694-1.171-15.059-3.398-22.86-3.84-2.673-.151 1.871-2.643 2.322-2.947 4.554-3.071 9.154-5.931 14.287-7.947 3.102-1.219 6.809-2.926 10.136-3.438.473-.073-1.753 4.076-1.92 4.42-3.821 7.886-9.018 16.846-14.913 23.396-1.07 1.189-1.786 2.592-1.786 4.197" stroke="#EEEEF0" stroke-linecap="round" stroke-width="2"/><path d="M108.206 168.109c0-3.34.023-6.651.248-9.984.087-1.282-.057-2.89.391-4.121.035-.097 1.026 1.708 1.101 1.847.93 1.702 1.893 3.383 3.003 4.974.127.182 1.442 1.603.479 1.457-3.061-.466-5.991-1.352-9.095-1.528-1.063-.06.744-1.051.924-1.172 1.812-1.222 3.642-2.36 5.684-3.162 1.234-.485 2.709-1.165 4.033-1.368.188-.029-.698 1.622-.764 1.759-1.52 3.137-3.588 6.702-5.933 9.308-.426.473-.711 1.031-.711 1.67" stroke="#EEEEF0" stroke-linecap="round"/><path d="M498.722 102.843c0-3.753 1.407-7.453 2.233-11.073.68-2.982.654-10.21 2.991-12.547 1.31-1.31 1.226 3.501 2.009 5.18 1.042 2.231 2.273 5.493 2.412 7.992.095 1.714 1.615 6.348.401 5.134-3.13-3.13-7.681-8.65-12.1-9.912-1.577-.45.018-.734.893-.893 6.063-1.102 12.31-1.504 18.485-1.563 1.987-.018 7.936-.636 3.572 1.608-2.543 1.308-4.686 3.147-7.233 4.42-5.576 2.788-11.477 4.87-14.466 10.85" stroke="#EEEEF0" stroke-linecap="round" stroke-width="2"/><path d="M44.074 16.79c.1.197.149.89.149 2.077.05 1.188.05 2.623 0 4.305 0 1.682-.05 3.488-.149 5.418-.099 1.88-.222 3.661-.37 5.344-.1.94-.273 2.35-.52 4.23-.198 1.88-.446 3.958-.743 6.234a585.508 585.508 0 0 1-.964 7.051 319.532 319.532 0 0 1-.891 6.606c-.297 1.979-.57 3.636-.816 4.972-.198 1.336-.347 2.054-.446 2.153-.198.148-.52.52-.965 1.113-.445.544-.94 1.113-1.484 1.707-.495.544-.965.99-1.41 1.336-.446.346-.742.396-.89.148-.1-.494-.15-2.028-.15-4.601V60.8c.05-1.683.1-3.711.15-6.086.098-2.375.222-5.146.37-8.313.149-3.166.322-6.828.52-10.984-.99 3.365-1.88 6.333-2.672 8.906a405.578 405.578 0 0 1-2.004 6.754 821.103 821.103 0 0 1-1.41 4.824 84.824 84.824 0 0 1-1.04 3.192c-.642 1.979-1.063 3.142-1.26 3.488-.199.05-.52-.099-.966-.445-.396-.347-.866-.841-1.41-1.485a30.753 30.753 0 0 1-1.558-2.449 17.82 17.82 0 0 1-1.262-3.117 265.149 265.149 0 0 1-1.336-4.156l-1.93-5.79a940.452 940.452 0 0 1-2.894-9.054c.296 4.057.544 7.62.742 10.687.198 3.068.346 5.74.445 8.016.149 2.276.248 4.206.297 5.79.099 1.533.148 2.82.148 3.858.05 2.376-.024 3.736-.222 4.082-.495 0-1.04-.222-1.633-.667a18.12 18.12 0 0 1-1.633-1.708c-.495-.692-.94-1.36-1.336-2.003-.346-.644-.544-1.114-.594-1.41-.049-.198-.197-1.114-.445-2.747a466.124 466.124 0 0 1-.89-6.234 923.66 923.66 0 0 0-1.04-8.61c-.346-3.215-.692-6.481-1.039-9.796a373.829 373.829 0 0 1-.742-9.649c-.198-3.166-.297-5.987-.297-8.46 0-.396.495-.916 1.485-1.56a23.688 23.688 0 0 1 3.34-1.929 52.44 52.44 0 0 1 3.562-1.633c1.089-.495 1.757-.742 2.004-.742.198 0 .396.57.594 1.707.247 1.138.52 2.573.816 4.305a709.5 709.5 0 0 1 .965 5.789 94.938 94.938 0 0 0 1.188 6.086c.346 1.979.766 4.032 1.261 6.16.396 1.83.841 3.86 1.336 6.086a120.028 120.028 0 0 0 1.781 6.383c.693-3.019 1.312-5.74 1.856-8.164a411.201 411.201 0 0 1 1.558-6.309 331.086 331.086 0 0 0 1.41-5.418c.891-3.86 1.757-6.902 2.598-9.129.89-2.226 1.46-3.538 1.707-3.933.149-.198.668-.248 1.559-.149.94.1 1.954.272 3.043.52a21.66 21.66 0 0 1 2.969.742c.94.297 1.46.544 1.558.742Zm20.856 9.648c.148.099.272.742.37 1.93.1 1.187.174 2.745.223 4.675.1 1.88.149 4.032.149 6.457v7.496c0 2.573-.025 5.121-.074 7.645 0 2.474-.05 4.75-.149 6.828a119.69 119.69 0 0 1-.222 5.195c-.05 1.435-.124 2.35-.223 2.746-.1.297-.396.742-.89 1.336-.446.643-.99 1.287-1.634 1.93a15.952 15.952 0 0 1-2.003 1.707c-.644.544-1.188.89-1.633 1.039-.89.297-1.88.247-2.969-.149a15.293 15.293 0 0 1-3.117-1.558 17.644 17.644 0 0 1-2.524-2.078c-.692-.693-1.113-1.188-1.261-1.485-.149-.296-.297-.742-.446-1.336a18.502 18.502 0 0 1-.222-1.632c-.05-.594-.05-1.089 0-1.485.099-.445.272-.668.52-.668.197 0 .717.223 1.558.668l2.82 1.41c.99.446 1.905.817 2.746 1.114.841.296 1.36.272 1.559-.075.198-.395.396-1.46.594-3.191.198-1.781.395-3.934.593-6.457-1.731.594-3.315.99-4.75 1.188-1.385.148-2.548-.1-3.488-.743-.445-.297-.915-.816-1.41-1.558a19.973 19.973 0 0 1-1.262-2.524 28.647 28.647 0 0 1-.89-3.117c-.248-1.138-.372-2.202-.372-3.191 0-.693.075-1.683.223-2.97.198-1.285.445-2.696.742-4.23.297-1.533.594-3.117.89-4.75.347-1.632.669-3.117.966-4.453.346-1.336.618-2.449.816-3.34.248-.94.396-1.46.446-1.558.098-.149.346-.223.742-.223a3.69 3.69 0 0 1 1.261.075c.446.049.866.173 1.262.37.396.198.643.421.742.669.05.197.05.816 0 1.855 0 1.04-.074 2.276-.222 3.71a245.122 245.122 0 0 1-.371 4.677 119.806 119.806 0 0 1-.372 4.675 145.44 145.44 0 0 1-.296 3.711c-.1 1.04-.149 1.658-.149 1.856 0 .792.074 1.559.223 2.3.198.693.42 1.312.668 1.856.297.495.593.89.89 1.188.297.297.57.395.817.297a14.162 14.162 0 0 0 2.3-.594c.347-.149.669-.297.965-.446.149-2.424.297-4.898.446-7.421.148-2.573.272-4.924.37-7.051.1-2.128.174-3.934.224-5.418.098-1.485.148-2.425.148-2.82 0-.446.198-.94.594-1.485a8.205 8.205 0 0 1 1.336-1.558c.494-.446.99-.767 1.484-.965.544-.248.965-.272 1.262-.075Zm47.87-10.465c.099.198.148.89.148 2.078.05 1.187.05 2.622 0 4.305 0 1.682-.049 3.488-.148 5.417-.099 1.88-.223 3.662-.371 5.344-.297 3.76-.644 7.472-1.039 11.133a370.41 370.41 0 0 1-1.188 9.871c-.346 2.92-.693 5.32-1.039 7.2-.297 1.83-.47 2.844-.519 3.042-.099.248-.322.619-.668 1.114-.347.494-.718.99-1.114 1.484-.396.445-.791.841-1.187 1.187-.347.347-.619.52-.817.52-.395-.346-1.113-1.707-2.152-4.082-.445-1.04-.99-2.326-1.633-3.86a199.795 199.795 0 0 1-2.226-5.788 7230.95 7230.95 0 0 0-2.97-8.016c-1.088-3.117-2.325-6.73-3.71-10.836.297 4.057.544 7.62.742 10.687.198 3.068.347 5.74.446 8.016.148 2.276.247 4.206.296 5.79.05 1.533.075 2.82.075 3.858 0 2.376-.075 3.736-.223 4.082-.495 0-1.04-.222-1.633-.667a13.049 13.049 0 0 1-1.558-1.708 35.15 35.15 0 0 1-1.336-2.003c-.347-.644-.545-1.114-.594-1.41-.05-.198-.198-1.114-.445-2.747a466.124 466.124 0 0 1-.891-6.234 924.678 924.678 0 0 0-1.04-8.61c-.346-3.215-.692-6.481-1.038-9.796a373.651 373.651 0 0 1-.742-9.649c-.198-3.166-.297-5.987-.297-8.46 0-.396.494-.916 1.484-1.56a23.683 23.683 0 0 1 3.34-1.929 52.44 52.44 0 0 1 3.562-1.633c1.089-.495 1.757-.742 2.004-.742.198 0 .396.57.594 1.707.248 1.138.495 2.573.742 4.305.297 1.732.619 3.661.965 5.789a145.21 145.21 0 0 0 1.262 6.086c.396 2.078.89 4.428 1.484 7.05a547.495 547.495 0 0 0 1.856 8.016c.791 3.117 1.707 6.58 2.746 10.39V46.18l.148-8.98c.05-2.97.099-5.815.149-8.536.099-2.77.173-5.22.222-7.348.099-2.127.173-3.834.223-5.12.099-1.287.173-1.98.223-2.079.148-.198.618-.247 1.41-.148.791.05 1.657.198 2.597.445a11.6 11.6 0 0 1 2.524.816c.792.297 1.237.545 1.336.743Zm20.187 11.43c.347.296.668.865.965 1.706.346.841.643 1.856.891 3.043.247 1.188.47 2.474.668 3.86.198 1.385.371 2.746.519 4.082.149 1.336.248 2.597.297 3.785.099 1.138.173 2.078.223 2.82.049.89.074 1.83.074 2.82.049.94.049 1.856 0 2.747 0 .84-.049 1.608-.148 2.3-.05.693-.149 1.213-.297 1.559a2.691 2.691 0 0 1-1.559 1.559c-.693.247-1.484.42-2.375.52-.445.049-1.212.073-2.301.073-1.039-.05-2.177-.099-3.414-.148a460.834 460.834 0 0 1-3.414-.297c-1.088-.099-1.905-.198-2.449-.297-1.089-.247-1.88-.569-2.375-.965-.445-.395-.891-.965-1.336-1.707-.148-.297-.272-1.039-.371-2.226a89.02 89.02 0 0 1-.223-4.38c0-1.731.025-3.586.075-5.566.049-1.979.123-3.859.222-5.64.149-1.782.297-3.34.445-4.676.198-1.336.446-2.227.743-2.672.494-.693 1.336-1.336 2.523-1.93 1.237-.593 2.35-1.063 3.34-1.41.495-.148 1.138-.247 1.93-.297a11.39 11.39 0 0 1 2.597 0c.94.05 1.831.198 2.672.446.841.198 1.534.494 2.078.89Zm-4.156 23.007c.099-.198.198-.791.297-1.781.148-1.04.247-2.276.297-3.711.099-1.435.148-2.969.148-4.602.05-1.632.074-3.142.074-4.527 0-1.385-.049-2.548-.148-3.488-.099-.99-.223-1.559-.371-1.707-.247-.198-.619-.272-1.113-.223-.446 0-.916.074-1.411.223-.494.099-.94.247-1.335.445-.396.148-.668.297-.817.445-.643.545-.989 1.435-1.039 2.672 0 .347-.049 1.336-.148 2.969-.05 1.583-.075 3.315-.075 5.195 0 1.831.025 3.538.075 5.121.099 1.584.272 2.549.519 2.895.248.346.594.618 1.039.816.495.149.99.223 1.485.223a4.67 4.67 0 0 0 1.484-.223c.495-.198.841-.445 1.039-.742Zm27.609-20.558c.05.148.05.569 0 1.261a23.238 23.238 0 0 1-.296 2.227 25.872 25.872 0 0 1-.372 2.226c-.148.644-.272 1.04-.371 1.188-.494.05-.989.074-1.484.074-.495-.05-.965-.074-1.41-.074h-1.559a616.786 616.786 0 0 1-.222 9.723c-.099 3.216-.223 6.11-.372 8.683-.148 2.524-.321 4.577-.519 6.16-.148 1.584-.297 2.4-.445 2.45-.347.049-.743-.1-1.188-.446a10.428 10.428 0 0 1-1.336-1.261 31.509 31.509 0 0 1-1.113-1.633c-.297-.594-.47-1.114-.52-1.559-.247-3.018-.47-5.888-.668-8.61-.198-2.77-.346-5.22-.445-7.347a122.177 122.177 0 0 1-.371-6.902 18.507 18.507 0 0 1-1.633-.223 90.4 90.4 0 0 0-1.558-.297 91.538 91.538 0 0 0-1.559-.297c-.099-.099-.223-.321-.371-.668a34.255 34.255 0 0 1-.445-1.261 49.34 49.34 0 0 0-.297-1.262c-.099-.445-.149-.767-.149-.965 0-.148.545-.297 1.633-.445a61.715 61.715 0 0 1 4.156-.371 563.194 563.194 0 0 1-.222-6.828c0-1.98.074-3.316.222-4.008.149-.94.545-1.831 1.188-2.672.693-.89 1.41-1.658 2.152-2.3.792-.644 1.509-1.114 2.153-1.411.692-.346 1.138-.445 1.335-.297.149.099.273.618.372 1.559.099.89.173 2.103.222 3.636.05 1.534.074 3.34.074 5.418v6.457c1.485-.099 2.747-.123 3.786-.074 1.039 0 1.583.05 1.632.149Zm8.164 16.699c.792-.297 1.683-.619 2.672-.965a54.344 54.344 0 0 1 2.969-1.04c.94-.346 1.781-.642 2.524-.89a22.969 22.969 0 0 0 1.632-.593 36.226 36.226 0 0 0-.222-1.856 24.545 24.545 0 0 0-.223-2.078 12.435 12.435 0 0 0-.371-1.781c-.148-.495-.297-.792-.445-.891-.396-.148-1.064-.272-2.004-.371-.891-.148-1.831-.124-2.821.074a7.13 7.13 0 0 0-2.597 1.113c-.792.545-1.237 1.41-1.336 2.598-.099.792-.124 1.781-.074 2.969.049 1.187.148 2.424.296 3.71Zm16.106 1.187c-.05.1-.643.297-1.781.594s-2.499.618-4.082.965c-1.584.297-3.266.618-5.047.965a376.66 376.66 0 0 1-4.602.742c.248 1.98.544 3.76.891 5.344.346 1.534.643 2.498.89 2.894.248.347.569.668.965.965.347.247.767.495 1.262.742.544.198 1.188.347 1.93.446.544.148 1.064-.05 1.558-.594.396-.495.743-1.36 1.039-2.598.347-1.237.52-3.191.52-5.863 1.534-.248 2.721-.396 3.562-.446.891-.049 1.534-.049 1.93 0 .495.05.792.124.891.223.049.149.049.52 0 1.114-.05.593-.173 1.335-.371 2.226a50.08 50.08 0 0 1-.594 2.82 27.53 27.53 0 0 1-.742 2.895 23.23 23.23 0 0 1-.965 2.45c-.347.692-.718 1.187-1.113 1.484-1.188.89-2.672 1.335-4.454 1.335a23.742 23.742 0 0 1-5.269-.742c-1.732-.495-3.29-1.064-4.676-1.707-1.385-.692-2.251-1.261-2.598-1.707-.247-.297-.47-1.039-.667-2.226a62.202 62.202 0 0 1-.52-4.453 174.194 174.194 0 0 1-.223-5.715 82.773 82.773 0 0 1 .075-6.086c.148-1.98.346-3.81.593-5.492.297-1.683.693-3.044 1.188-4.083.742-1.484 1.954-2.696 3.637-3.636a17.305 17.305 0 0 1 5.343-1.93c1.88-.346 3.662-.396 5.344-.148 1.732.247 3.018.791 3.859 1.632.495.495.94 1.485 1.336 2.97.396 1.434.644 3.19.742 5.269 0 .198.025.767.075 1.707.049.94.074 1.954.074 3.043.049 1.039.074 2.028.074 2.968s-.025 1.485-.074 1.633Zm26.348-16.254c.049.545-.05 1.386-.297 2.524a17.693 17.693 0 0 1-.965 3.414c-.396 1.138-.94 2.128-1.633 2.969-.643.84-1.385 1.261-2.226 1.261-.594 0-1.089-.47-1.485-1.41-.346-.94-.618-2.028-.816-3.265a107.307 107.307 0 0 1-.371-3.786c-.099-1.237-.198-2.103-.297-2.597-.149-.248-.446-.47-.891-.668-.396-.248-.792-.371-1.187-.371-.396 0-.842.321-1.336.965-.495.643-.99 1.385-1.485 2.226a28.949 28.949 0 0 0-1.187 2.523c-.297.842-.421 1.46-.371 1.856 0 .297.321.816.965 1.559.643.742 1.434 1.632 2.375 2.672.989.99 2.028 2.078 3.117 3.265a40.41 40.41 0 0 1 3.117 3.488 29.838 29.838 0 0 1 2.375 3.266c.693 1.04 1.064 1.93 1.113 2.672.05.89-.198 2.029-.742 3.414a21.298 21.298 0 0 1-1.93 4.008c-.791 1.286-1.632 2.4-2.523 3.34-.891.94-1.682 1.434-2.375 1.484-.693.05-1.707-.322-3.043-1.113a46.725 46.725 0 0 1-3.934-2.895 57.514 57.514 0 0 1-3.488-3.34c-.99-1.088-1.559-1.88-1.707-2.375-.148-.445-.247-1.039-.297-1.78 0-.743.025-1.485.074-2.227.099-.743.248-1.361.446-1.856.198-.544.445-.816.742-.816s.891.52 1.781 1.558c.891.99 1.856 2.128 2.895 3.414a73.212 73.212 0 0 0 3.043 3.414c.989.99 1.707 1.485 2.152 1.485.247 0 .52-.173.816-.52.297-.396.569-.841.817-1.336.247-.495.445-.99.594-1.484.197-.544.296-.965.296-1.262-.049-.445-.445-1.088-1.187-1.93-.742-.84-1.682-1.78-2.82-2.82a144.066 144.066 0 0 0-3.711-3.265 374.655 374.655 0 0 1-3.711-3.34c-1.138-1.04-2.078-1.98-2.821-2.82-.742-.842-1.138-1.485-1.187-1.93-.05-.446.099-1.138.445-2.078.347-.99.792-2.054 1.336-3.192a50.42 50.42 0 0 1 1.856-3.637 51.197 51.197 0 0 1 2.226-3.414c.742-1.039 1.46-1.88 2.153-2.523.742-.693 1.385-1.04 1.929-1.04 1.089 0 2.375.298 3.86.892a24.339 24.339 0 0 1 4.379 2.226c1.385.841 2.572 1.732 3.562 2.672.99.94 1.509 1.781 1.559 2.523ZM243.751 68c-1.891 0-3.58-.397-5.066-1.19V68h-8.259V39.348l-1.52-.912V36.08l8.132-1.267h1.647v13.63c.27-.304.565-.591.886-.862a7.36 7.36 0 0 1 1.166-.785 6.703 6.703 0 0 1 1.545-.608 7.502 7.502 0 0 1 1.875-.228c2.786 0 4.83.954 6.13 2.863 1.318 1.908 1.976 4.551 1.976 7.929 0 1.588-.177 3.057-.532 4.408-.354 1.334-.878 2.516-1.57 3.547a7.439 7.439 0 0 1-2.686 2.432c-1.081.574-2.322.861-3.724.861Zm-3.724-3.521c2.263 0 3.395-1.731 3.395-5.194V54.98c0-1.453-.27-2.567-.811-3.344-.523-.794-1.199-1.191-2.026-1.191-.625 0-1.259.228-1.9.684v13.173c.253.068.489.119.709.152.22.017.431.026.633.026Zm27.263.152c-.102.236-.313.549-.634.937-.304.388-.709.82-1.216 1.292-.506.456-1.131.844-1.874 1.165a5.403 5.403 0 0 1-2.255.507c-2.381 0-4.087-.71-5.117-2.128-1.014-1.419-1.52-3.783-1.52-7.093v-9.019l-.887-.912v-2.913h9.196v14.44c-.017.76.11 1.325.38 1.697.27.355.76.532 1.469.532h.279l.253-.05c.085-.034.152-.06.203-.077a1.75 1.75 0 0 0 .228-.076c.085-.05.152-.093.203-.126a5.05 5.05 0 0 1 .202-.127 2.42 2.42 0 0 0 .178-.152c.05-.034.118-.084.202-.152.102-.084.178-.144.228-.177V50.292l-1.368-.912v-2.913h9.652V68h-7.017l-.785-3.37Zm17.216 3.901c-2.28 0-3.876-.684-4.788-2.052-.896-1.368-1.343-3.682-1.343-6.941v-8.614h-1.748v-3.521l2.989-.937 2.584-5.903h4.459v5.903h4.155v4.458h-4.231v9.424c0 1.351.194 2.247.583 2.686.388.439.988.658 1.798.658.355 0 .676-.042.963-.126.287-.085.523-.203.709-.355v3.445a5.535 5.535 0 0 1-.988.76c-.405.237-1.081.482-2.026.735-.929.253-1.968.38-3.116.38Zm57.111-47.66c.248.296.495 1.137.742 2.523a39.23 39.23 0 0 1 .52 4.527c.148 1.633.198 3.166.148 4.601 0 1.435-.123 2.375-.371 2.82-.198.298-.692.842-1.484 1.634-.792.742-1.707 1.583-2.746 2.523a95.924 95.924 0 0 1-3.266 2.82 113.51 113.51 0 0 1-2.894 2.301c.395.792.89 1.83 1.484 3.117.594 1.237 1.237 2.573 1.93 4.008a88.114 88.114 0 0 1 2.004 4.305 206.45 206.45 0 0 1 1.855 4.082 86.79 86.79 0 0 1 1.336 3.043c.346.791.52 1.261.52 1.41 0 .247-.124.594-.372 1.039-.197.445-.47.866-.816 1.262a6.26 6.26 0 0 1-1.113.89c-.396.248-.767.297-1.114.149-.197-.05-.569-.445-1.113-1.188a604.8 604.8 0 0 0-2.004-2.894 788.908 788.908 0 0 0-2.523-4.008 219.03 219.03 0 0 0-2.746-4.453c-.94-1.534-1.831-2.994-2.672-4.38a1090.59 1090.59 0 0 0-2.227-3.784c-.099 5.146-.222 9.104-.371 11.875-.099 2.77-.173 4.8-.222 6.086-.099 1.533-.198 2.4-.297 2.597-.149 0-.47-.198-.965-.593a23.212 23.212 0 0 1-1.559-1.559 49.689 49.689 0 0 1-1.558-1.781c-.446-.594-.718-1.04-.817-1.336-.099-.643-.247-2.499-.445-5.567a213.69 213.69 0 0 1-.297-4.972c-.099-1.98-.223-4.38-.371-7.2a601.12 601.12 0 0 0-.445-9.945c-.198-3.81-.396-8.189-.594-13.136-.891-.05-1.608-.05-2.152 0-.545 0-.965.024-1.262.074a4.47 4.47 0 0 1-.668.074c-.149-.05-.272-.173-.371-.371-.198-.396-.347-1.064-.446-2.004-.098-.99-.148-1.93-.148-2.82 0-.99.148-1.98.445-2.97.248-.989.569-1.607.965-1.855.198-.148.891-.123 2.078.075 1.188.148 2.499.346 3.934.593 1.435.248 2.795.52 4.082.817 1.336.297 2.202.495 2.598.594.346.098.915.272 1.707.52.791.197 1.707.494 2.746.89 1.039.346 2.127.742 3.265 1.187 1.188.445 2.301.916 3.34 1.41 1.039.495 1.979.99 2.821 1.485.841.494 1.484.99 1.929 1.484ZM324.918 41.8c.445-.248 1.039-.718 1.781-1.41a154.055 154.055 0 0 0 5.047-5.344 79.115 79.115 0 0 0 2.375-2.895 33.524 33.524 0 0 0 1.781-2.3c.446-.644.668-1.064.668-1.262 0-.346-.321-.742-.965-1.188-.593-.494-1.385-.99-2.375-1.484-.989-.495-2.152-.965-3.488-1.41a38.875 38.875 0 0 0-4.082-1.262l-.742 18.555Zm27.016 4.75a126.49 126.49 0 0 1 2.671-.965 54.64 54.64 0 0 1 2.969-1.04c.94-.346 1.781-.642 2.524-.89a22.969 22.969 0 0 0 1.632-.593 36.226 36.226 0 0 0-.222-1.856 24.545 24.545 0 0 0-.223-2.078 12.435 12.435 0 0 0-.371-1.781c-.148-.495-.297-.792-.445-.891-.396-.148-1.064-.272-2.004-.371-.891-.148-1.831-.124-2.82.074a7.134 7.134 0 0 0-2.598 1.113c-.792.545-1.237 1.41-1.336 2.598-.099.792-.124 1.781-.074 2.969.049 1.187.148 2.424.297 3.71Zm16.105 1.187c-.049.1-.643.297-1.781.594s-2.499.618-4.082.965c-1.584.297-3.266.618-5.047.965a376.66 376.66 0 0 1-4.602.742c.248 1.98.545 3.76.891 5.344.346 1.534.643 2.498.891 2.894.247.347.569.668.964.965.347.247.767.495 1.262.742.544.198 1.188.347 1.93.446.544.148 1.064-.05 1.558-.594.396-.495.743-1.36 1.039-2.598.347-1.237.52-3.191.52-5.863 1.534-.248 2.721-.396 3.563-.446.89-.049 1.533-.049 1.929 0 .495.05.792.124.891.223.049.149.049.52 0 1.114-.05.593-.173 1.335-.371 2.226a50.08 50.08 0 0 1-.594 2.82 27.53 27.53 0 0 1-.742 2.895 23.23 23.23 0 0 1-.965 2.45c-.346.692-.717 1.187-1.113 1.484-1.188.89-2.672 1.335-4.453 1.335a23.743 23.743 0 0 1-5.27-.742c-1.732-.495-3.29-1.064-4.676-1.707-1.385-.692-2.251-1.261-2.597-1.707-.248-.297-.47-1.039-.668-2.226-.198-1.237-.371-2.722-.52-4.453a174.194 174.194 0 0 1-.223-5.715 82.773 82.773 0 0 1 .075-6.086c.148-1.98.346-3.81.593-5.492.297-1.683.693-3.044 1.188-4.083.742-1.484 1.954-2.696 3.637-3.636a17.305 17.305 0 0 1 5.343-1.93c1.881-.346 3.662-.396 5.344-.148 1.732.247 3.018.791 3.859 1.632.495.495.941 1.485 1.336 2.97.396 1.434.644 3.19.743 5.269 0 .198.024.767.074 1.707.049.94.074 1.954.074 3.043.05 1.039.074 2.028.074 2.968s-.024 1.485-.074 1.633Zm26.348-16.254c.049.545-.05 1.386-.297 2.524a17.693 17.693 0 0 1-.965 3.414c-.396 1.138-.94 2.128-1.633 2.969-.643.84-1.385 1.261-2.226 1.261-.594 0-1.089-.47-1.485-1.41-.346-.94-.618-2.028-.816-3.265a107.307 107.307 0 0 1-.371-3.786c-.099-1.237-.198-2.103-.297-2.597-.149-.248-.445-.47-.891-.668-.396-.248-.791-.371-1.187-.371s-.841.321-1.336.965c-.495.643-.99 1.385-1.485 2.226a28.949 28.949 0 0 0-1.187 2.523c-.297.842-.421 1.46-.371 1.856 0 .297.321.816.965 1.559.643.742 1.435 1.632 2.375 2.672.989.99 2.028 2.078 3.117 3.265a40.41 40.41 0 0 1 3.117 3.488 29.838 29.838 0 0 1 2.375 3.266c.693 1.04 1.064 1.93 1.113 2.672.05.89-.198 2.029-.742 3.414a21.298 21.298 0 0 1-1.93 4.008c-.791 1.286-1.632 2.4-2.523 3.34-.891.94-1.682 1.434-2.375 1.484-.693.05-1.707-.322-3.043-1.113a46.888 46.888 0 0 1-3.934-2.895 57.514 57.514 0 0 1-3.488-3.34c-.989-1.088-1.558-1.88-1.707-2.375-.148-.445-.247-1.039-.297-1.78 0-.743.025-1.485.075-2.227.098-.743.247-1.361.445-1.856.198-.544.445-.816.742-.816s.891.52 1.781 1.558c.891.99 1.856 2.128 2.895 3.414a73.212 73.212 0 0 0 3.043 3.414c.989.99 1.707 1.485 2.152 1.485.247 0 .52-.173.816-.52a8.68 8.68 0 0 0 .817-1.336c.247-.495.445-.99.594-1.484.198-.544.297-.965.297-1.262-.05-.445-.446-1.088-1.188-1.93-.742-.84-1.682-1.78-2.82-2.82a144.066 144.066 0 0 0-3.711-3.265 374.655 374.655 0 0 1-3.711-3.34c-1.138-1.04-2.078-1.98-2.82-2.82-.743-.842-1.138-1.485-1.188-1.93-.049-.446.099-1.138.445-2.078.347-.99.792-2.054 1.336-3.192a50.83 50.83 0 0 1 1.856-3.637 51.197 51.197 0 0 1 2.226-3.414c.743-1.039 1.46-1.88 2.153-2.523.742-.693 1.385-1.04 1.929-1.04 1.089 0 2.375.298 3.86.892a24.306 24.306 0 0 1 4.379 2.226c1.385.841 2.573 1.732 3.562 2.672.99.94 1.509 1.781 1.559 2.523Zm18.851-4.082c.347.297.668.866.965 1.707.346.841.643 1.856.891 3.043.247 1.188.47 2.474.668 3.86.198 1.385.371 2.746.519 4.082.149 1.336.248 2.597.297 3.785.099 1.138.173 2.078.223 2.82.049.89.074 1.83.074 2.82.049.94.049 1.856 0 2.747 0 .84-.049 1.608-.148 2.3-.05.693-.149 1.213-.297 1.559a2.691 2.691 0 0 1-1.559 1.559c-.693.247-1.484.42-2.375.52-.445.049-1.212.073-2.301.073-1.039-.05-2.177-.099-3.414-.148a460.834 460.834 0 0 1-3.414-.297c-1.088-.099-1.905-.198-2.449-.297-1.089-.247-1.88-.569-2.375-.965-.445-.395-.891-.965-1.336-1.707-.148-.297-.272-1.039-.371-2.226a89.02 89.02 0 0 1-.223-4.38c0-1.731.025-3.586.075-5.566.049-1.979.123-3.859.222-5.64.149-1.782.297-3.34.445-4.676.198-1.336.446-2.227.743-2.672.494-.693 1.336-1.336 2.523-1.93 1.237-.593 2.35-1.063 3.34-1.41.495-.148 1.138-.247 1.93-.297a11.39 11.39 0 0 1 2.597 0c.94.05 1.831.198 2.672.446.841.198 1.534.494 2.078.89Zm-4.156 23.008c.099-.198.198-.791.297-1.781.148-1.04.247-2.276.297-3.711.099-1.435.148-2.969.148-4.602.05-1.632.074-3.142.074-4.527 0-1.385-.049-2.548-.148-3.488-.099-.99-.223-1.559-.371-1.707-.247-.198-.619-.272-1.113-.223-.446 0-.916.074-1.411.223-.494.099-.94.247-1.335.445-.396.148-.668.297-.817.445-.643.545-.989 1.435-1.039 2.672 0 .347-.049 1.336-.148 2.969-.05 1.583-.075 3.315-.075 5.195 0 1.831.025 3.538.075 5.121.099 1.584.272 2.549.519 2.895.248.346.594.618 1.039.816.495.149.99.223 1.485.223a4.67 4.67 0 0 0 1.484-.223c.495-.198.841-.445 1.039-.742Zm28.277-22.117c.099.148.248.841.446 2.078.198 1.237.396 2.77.593 4.602.248 1.83.47 3.81.668 5.937.248 2.128.47 4.156.668 6.086.248 1.93.446 3.662.594 5.195.149 1.534.272 2.573.371 3.118.149.89.322 1.88.52 2.968a77.53 77.53 0 0 1 .519 3.043c.149.94.248 1.757.297 2.45.099.692.074 1.113-.074 1.261-.099.149-.495.198-1.188.149a26.539 26.539 0 0 1-2.3-.446 31.412 31.412 0 0 1-2.301-.816c-.693-.346-1.138-.668-1.336-.965-.198-.247-.396-.618-.594-1.113-.148-.495-.346-1.36-.594-2.598-.544.742-1.138 1.534-1.781 2.375a43.86 43.86 0 0 1-1.781 2.227c-.594.643-1.138 1.163-1.633 1.558-.495.396-.866.594-1.113.594-.396 0-.99-.396-1.781-1.187a35.345 35.345 0 0 1-2.375-2.82 71.657 71.657 0 0 1-2.153-2.97c-.643-.94-.989-1.558-1.039-1.855-.099-.297-.148-1.113-.148-2.45.049-1.335.099-2.82.148-4.452.099-1.683.198-3.34.297-4.973.099-1.682.198-3.018.297-4.008.099-.99.198-2.078.297-3.265.148-1.237.297-2.375.445-3.414.149-1.089.272-2.03.371-2.82.149-.792.272-1.262.371-1.41.099-.15.371-.224.817-.224a5.007 5.007 0 0 1 1.484.075c.544.05 1.039.173 1.484.37.446.15.743.347.891.595.099.197.149.84.149 1.93a84.11 84.11 0 0 1 .074 3.859v4.898c0 1.732-.025 3.365-.074 4.898 0 1.485-.025 2.771-.075 3.86v1.855c0 .396.223 1.163.668 2.301.495 1.138.99 2.227 1.485 3.266l3.859-4.602c-.049-.89-.099-2.029-.148-3.414 0-1.385-.025-2.845-.075-4.379-.049-1.534-.099-3.092-.148-4.676-.05-1.583-.074-3.018-.074-4.304v-3.192c0-.84.024-1.336.074-1.484.148-.297.445-.693.891-1.188.445-.494.94-.964 1.484-1.41a10.338 10.338 0 0 1 1.484-1.039c.495-.247.841-.272 1.039-.074Zm23.75-.742c.396.247.767.742 1.114 1.484.395.693.742 1.51 1.039 2.45.346.89.618 1.855.816 2.894.248 1.039.445 2.004.594 2.894.198.891.321 1.658.371 2.301.049.594.049.965 0 1.114-.099.197-.396.395-.891.593-.445.198-1.113.42-2.004.668-.89.248-2.127.52-3.71.817-.099-2.722-.297-4.775-.594-6.16-.297-1.435-.619-2.45-.965-3.044-.396-.692-.817-1.039-1.262-1.039a4.819 4.819 0 0 0-1.187.743 4.71 4.71 0 0 0-.891.816 9.147 9.147 0 0 0-.816 1.113c-.099.149-.198.495-.297 1.04-.099.544-.198 1.36-.297 2.449 0 .346-.025 1.063-.074 2.152 0 1.089-.025 2.35-.075 3.785 0 1.435-.024 2.944-.074 4.527 0 1.584-.024 3.068-.074 4.454a67.02 67.02 0 0 1-.074 3.414c0 .94-.025 1.484-.074 1.632-.099.248-.347.594-.743 1.04-.395.445-.841.865-1.336 1.261-.494.347-.964.643-1.41.89-.445.199-.742.174-.89-.073-.149-.149-.297-.792-.446-1.93a495.993 495.993 0 0 1-.519-4.156 487.006 487.006 0 0 0-.52-5.492 302.87 302.87 0 0 1-.519-5.715 401.738 401.738 0 0 1-.371-4.899 336.073 336.073 0 0 0-.223-3.191c-.049-.94-.099-1.98-.148-3.117-.05-1.138-.099-2.202-.149-3.192v-2.672c.05-.791.149-1.261.297-1.41.099-.148.421-.173.965-.074.594.05 1.212.198 1.855.445a8.38 8.38 0 0 1 1.93.817c.594.346.99.668 1.188.965.148.247.296.618.445 1.113.94-.495 1.831-.94 2.672-1.336.89-.445 1.731-.767 2.523-.965a6.893 6.893 0 0 1 2.449-.148c.792.05 1.584.296 2.375.742Zm18.407-.149c-.198-.198-.619-.396-1.262-.593-.643-.198-1.089-.124-1.336.222-.148.198-.396.841-.742 1.93-.347 1.088-.718 2.474-1.114 4.156a88.28 88.28 0 0 0-.964 5.79 59.664 59.664 0 0 0-.371 6.753c0 1.682.074 3.29.222 4.824.149 1.485.322 2.796.52 3.934.247 1.138.519 2.053.816 2.746.347.693.693 1.064 1.039 1.113.297 0 .643-.346 1.039-1.039.446-.692.866-1.484 1.262-2.375a34.33 34.33 0 0 0 1.113-2.597c.347-.841.594-1.386.742-1.633A5.447 5.447 0 0 1 482.039 49c.643-.495 1.188-.742 1.633-.742.247 0 .42.173.519.52.149.346.248.766.297 1.261.099.445.149.915.149 1.41v1.188c0 .544-.099 1.558-.297 3.043a38.443 38.443 0 0 1-.891 4.527c-.346 1.534-.767 2.895-1.261 4.082-.446 1.188-.941 1.757-1.485 1.707-.544-.05-1.361-.297-2.449-.742a39.777 39.777 0 0 1-3.34-1.559 55.403 55.403 0 0 1-3.043-1.78c-.891-.644-1.435-1.139-1.633-1.485-.198-.347-.495-1.188-.89-2.524a92.838 92.838 0 0 1-1.262-5.047 91.012 91.012 0 0 1-1.039-6.53 57.365 57.365 0 0 1-.445-7.126c0-2.375.049-4.725.148-7.05.148-2.326.371-4.404.668-6.235.297-1.83.668-3.315 1.113-4.453.495-1.138 1.089-1.732 1.781-1.781a15.36 15.36 0 0 1 5.79.52c1.979.494 3.735 1.187 5.269 2.077 1.583.841 2.87 1.757 3.859 2.746.99.94 1.51 1.732 1.559 2.375.05.693 0 1.658-.148 2.895a34.8 34.8 0 0 1-.52 3.785 29.307 29.307 0 0 1-.742 3.414c-.247.99-.47 1.559-.668 1.707a23.38 23.38 0 0 1-1.559 1.41c-.593.495-1.162.594-1.707.297-.198-.099-.371-.47-.519-1.113a42.062 42.062 0 0 1-.446-2.524c-.098-.99-.197-2.053-.296-3.191a173.74 173.74 0 0 0-.297-3.117c-.05-.99-.124-1.806-.223-2.45-.049-.692-.099-1.063-.148-1.113Zm16.179 19.149c.792-.297 1.683-.619 2.672-.965a54.344 54.344 0 0 1 2.969-1.04 86.64 86.64 0 0 1 2.523-.89 22.85 22.85 0 0 0 1.633-.593 37.386 37.386 0 0 0-.222-1.856 24.545 24.545 0 0 0-.223-2.078 12.435 12.435 0 0 0-.371-1.781c-.149-.495-.297-.792-.446-.891-.395-.148-1.063-.272-2.003-.371-.891-.148-1.831-.124-2.821.074a7.13 7.13 0 0 0-2.597 1.113c-.792.545-1.237 1.41-1.336 2.598-.099.792-.124 1.781-.075 2.969a51.42 51.42 0 0 0 .297 3.71Zm16.106 1.187c-.05.1-.643.297-1.781.594s-2.499.618-4.082.965c-1.584.297-3.266.618-5.047.965-1.782.297-3.315.544-4.602.742.247 1.98.544 3.76.891 5.344.346 1.534.643 2.498.89 2.894.248.347.569.668.965.965.347.247.767.495 1.262.742.544.198 1.187.347 1.93.446.544.148 1.063-.05 1.558-.594.396-.495.742-1.36 1.039-2.598.347-1.237.52-3.191.52-5.863 1.534-.248 2.721-.396 3.562-.446.891-.049 1.534-.049 1.93 0 .495.05.792.124.891.223.049.149.049.52 0 1.114-.05.593-.174 1.335-.372 2.226a49.137 49.137 0 0 1-.593 2.82c-.198.99-.446 1.955-.742 2.895a23.23 23.23 0 0 1-.965 2.45c-.347.692-.718 1.187-1.114 1.484-1.187.89-2.671 1.335-4.453 1.335a23.742 23.742 0 0 1-5.269-.742c-1.732-.495-3.291-1.064-4.676-1.707-1.385-.692-2.251-1.261-2.598-1.707-.247-.297-.47-1.039-.668-2.226-.198-1.237-.371-2.722-.519-4.453a174.194 174.194 0 0 1-.223-5.715 82.781 82.781 0 0 1 .074-6.086c.149-1.98.347-3.81.594-5.492.297-1.683.693-3.044 1.188-4.083.742-1.484 1.954-2.696 3.636-3.636a17.32 17.32 0 0 1 5.344-1.93c1.88-.346 3.662-.396 5.344-.148 1.732.247 3.018.791 3.859 1.632.495.495.94 1.485 1.336 2.97.396 1.434.643 3.19.742 5.269 0 .198.025.767.075 1.707.049.94.074 1.954.074 3.043.049 1.039.074 2.028.074 2.968s-.025 1.485-.074 1.633Zm26.347-16.254c.05.545-.049 1.386-.296 2.524a17.693 17.693 0 0 1-.965 3.414c-.396 1.138-.94 2.128-1.633 2.969-.643.84-1.386 1.261-2.227 1.261-.593 0-1.088-.47-1.484-1.41-.346-.94-.619-2.028-.816-3.265a107.346 107.346 0 0 1-.372-3.786c-.098-1.237-.197-2.103-.296-2.597-.149-.248-.446-.47-.891-.668-.396-.248-.792-.371-1.188-.371-.395 0-.841.321-1.335.965-.495.643-.99 1.385-1.485 2.226a28.949 28.949 0 0 0-1.187 2.523c-.297.842-.421 1.46-.371 1.856 0 .297.321.816.964 1.559.644.742 1.435 1.632 2.375 2.672.99.99 2.029 2.078 3.118 3.265a40.41 40.41 0 0 1 3.117 3.488 29.838 29.838 0 0 1 2.375 3.266c.692 1.04 1.064 1.93 1.113 2.672.05.89-.198 2.029-.742 3.414a21.298 21.298 0 0 1-1.93 4.008c-.791 1.286-1.633 2.4-2.523 3.34-.891.94-1.683 1.434-2.375 1.484-.693.05-1.707-.322-3.043-1.113a46.725 46.725 0 0 1-3.934-2.895 57.514 57.514 0 0 1-3.488-3.34c-.99-1.088-1.559-1.88-1.707-2.375-.149-.445-.248-1.039-.297-1.78 0-.743.025-1.485.074-2.227.099-.743.248-1.361.446-1.856.197-.544.445-.816.742-.816s.89.52 1.781 1.558c.891.99 1.855 2.128 2.894 3.414a74.377 74.377 0 0 0 3.043 3.414c.99.99 1.707 1.485 2.153 1.485.247 0 .519-.173.816-.52.297-.396.569-.841.817-1.336.247-.495.445-.99.593-1.484.198-.544.297-.965.297-1.262-.049-.445-.445-1.088-1.187-1.93-.742-.84-1.683-1.78-2.821-2.82a144.066 144.066 0 0 0-3.711-3.265 385.621 385.621 0 0 1-3.71-3.34c-1.138-1.04-2.079-1.98-2.821-2.82-.742-.842-1.138-1.485-1.187-1.93-.05-.446.099-1.138.445-2.078a31.79 31.79 0 0 1 1.336-3.192 50.807 50.807 0 0 1 1.855-3.637 51.594 51.594 0 0 1 2.227-3.414c.742-1.039 1.46-1.88 2.152-2.523.743-.693 1.386-1.04 1.93-1.04 1.089 0 2.375.298 3.859.892a24.273 24.273 0 0 1 4.379 2.226c1.386.841 2.573 1.732 3.563 2.672.989.94 1.509 1.781 1.558 2.523ZM23.632 112.232c-3.192.101-5.65 1.317-7.372 3.648-1.672 2.331-2.508 6.359-2.508 12.084 0 1.875.177 3.192.532 3.952.355.709.532 1.115.532 1.216-2.736 0-4.788-.557-6.156-1.672-1.317-1.165-1.976-3.065-1.976-5.7 0-3.597.887-6.865 2.66-9.804 1.773-2.989 4.585-5.396 8.436-7.22C21.681 106.912 26.621 106 32.6 106c1.216 0 2.837.127 4.864.38 3.648.355 6.232.532 7.752.532 2.685 0 4.965-.304 6.84-.912-.152.456-.43 1.469-.836 3.04a8.98 8.98 0 0 1-2.204 3.952c-1.013 1.064-2.407 1.773-4.18 2.128-2.99 0-6.536-.481-10.64-1.444L31.004 128.8H42.1l-1.216 5.624H29.788L23.632 163H12.688l10.944-50.768Zm28.347 51.072c-3.75 0-6.713-.963-8.892-2.888-2.179-1.925-3.268-4.965-3.268-9.12 0-3.445.71-7.271 2.128-11.476 1.418-4.205 3.698-7.828 6.84-10.868 3.141-3.091 7.093-4.636 11.856-4.636 6.485 0 9.728 4.053 9.728 12.16v.076c.152.051.43.076.836.076 1.672 0 3.597-.431 5.776-1.292 2.178-.912 4.154-2.001 5.928-3.268l.684 2.052c-1.47 1.571-3.395 2.913-5.776 4.028-2.33 1.064-4.89 1.824-7.676 2.28-.406 4.611-1.444 8.639-3.116 12.084-1.672 3.445-3.825 6.105-6.46 7.98s-5.498 2.812-8.588 2.812Zm3.04-6.84c1.216 0 2.432-.684 3.648-2.052 1.216-1.419 2.28-3.319 3.192-5.7.912-2.432 1.57-5.117 1.976-8.056-1.368-.304-2.052-1.368-2.052-3.192 0-2.077.785-3.445 2.356-4.104-.102-1.672-.355-2.812-.76-3.42-.405-.659-1.115-.988-2.128-.988-1.672 0-3.293 1.216-4.864 3.648-1.57 2.432-2.837 5.345-3.8 8.74-.963 3.395-1.444 6.384-1.444 8.968 0 2.432.279 4.079.836 4.94.557.811 1.57 1.216 3.04 1.216ZM79.449 125h10.944l-.988 4.712c1.723-1.52 3.268-2.685 4.636-3.496a9.039 9.039 0 0 1 4.56-1.216c1.622 0 2.888.557 3.8 1.672.963 1.115 1.444 2.457 1.444 4.028 0 1.469-.481 2.761-1.444 3.876-.962 1.115-2.305 1.672-4.028 1.672-1.114 0-1.874-.253-2.28-.76-.354-.557-.633-1.343-.836-2.356-.152-.659-.304-1.14-.456-1.444-.152-.304-.43-.456-.836-.456-1.064 0-1.976.228-2.736.684-.71.405-1.646 1.14-2.812 2.204L82.337 163H71.393l8.056-38Zm66.027 14.592-7.296-28.5c-3.597 1.368-6.384 3.496-8.36 6.384-1.976 2.837-2.964 6.333-2.964 10.488 0 1.875.177 3.192.532 3.952.355.709.532 1.115.532 1.216-2.736 0-4.788-.557-6.156-1.672-1.317-1.165-1.976-3.065-1.976-5.7 0-3.243 1.317-6.384 3.952-9.424 2.685-3.091 6.105-5.573 10.26-7.448 4.155-1.925 8.309-2.888 12.464-2.888.709 0 1.723.051 3.04.152l6.612 27.208 11.248-26.98h5.016l-14.744 33.212L152.62 163h-12.16l5.016-23.408Zm32.081 23.712c-3.749 0-6.713-.963-8.892-2.888-2.179-1.925-3.268-4.965-3.268-9.12 0-3.445.709-7.271 2.128-11.476 1.419-4.205 3.699-7.828 6.84-10.868 3.141-3.091 7.093-4.636 11.856-4.636 6.485 0 9.728 4.053 9.728 12.16v.076c.152.051.431.076.836.076 1.672 0 3.597-.431 5.776-1.292 2.179-.912 4.155-2.001 5.928-3.268l.684 2.052c-1.469 1.571-3.395 2.913-5.776 4.028-2.331 1.064-4.889 1.824-7.676 2.28-.405 4.611-1.444 8.639-3.116 12.084-1.672 3.445-3.825 6.105-6.46 7.98s-5.497 2.812-8.588 2.812Zm3.04-6.84c1.216 0 2.432-.684 3.648-2.052 1.216-1.419 2.28-3.319 3.192-5.7.912-2.432 1.571-5.117 1.976-8.056-1.368-.304-2.052-1.368-2.052-3.192 0-2.077.785-3.445 2.356-4.104-.101-1.672-.355-2.812-.76-3.42-.405-.659-1.115-.988-2.128-.988-1.672 0-3.293 1.216-4.864 3.648-1.571 2.432-2.837 5.345-3.8 8.74-.963 3.395-1.444 6.384-1.444 8.968 0 2.432.279 4.079.836 4.94.557.811 1.571 1.216 3.04 1.216Zm26.786 6.992c-2.432 0-4.408-.76-5.928-2.28-1.469-1.52-2.204-3.8-2.204-6.84 0-1.267.203-2.913.608-4.94L205.027 125h10.944l-5.472 25.84a7.803 7.803 0 0 0-.228 1.9c0 2.229.76 3.344 2.28 3.344 1.419 0 2.635-.583 3.648-1.748 1.014-1.216 1.824-2.863 2.432-4.94L223.799 125h10.944l-5.472 25.84a9.437 9.437 0 0 0-.304 2.432c0 1.013.228 1.748.684 2.204.507.405 1.318.608 2.432.608.811 0 1.394-.051 1.748-.152.406-.152.659-.253.76-.304-.202 2.584-1.089 4.535-2.66 5.852-1.57 1.317-3.496 1.976-5.776 1.976-2.128 0-3.85-.633-5.168-1.9-1.266-1.267-2.026-3.04-2.28-5.32-1.722 2.787-3.546 4.687-5.472 5.7-1.874 1.013-3.825 1.52-5.852 1.52Z" fill="#EEEEF0"/><path d="M247.602 23.714c1.876-.834 3.663.265 5.222 1.324 1.687 1.146 1.92 3.131 3.383 4.229 2.89 2.167 8.722-4.649 10.37-6.142 1.515-1.373 2.93-3.264 4.615-4.431.273-.189.239 3.123.239 3.402 0 1.873-.043 3.753 0 5.626.029 1.268.335 1.315 1.398.754.371-.196 4.683-2.397 4.376-1.269-.131.48-.84 1.596-.221 1.967 1.737 1.043 5.09-.444 6.362.828m-99.238 77.784c2.981 2.981 5.172 1.86 8.805 2.668.854.189.659 1.205 1.9 1.205 6.237 0 12.722-2.242 18.891-3.069 4.524-.606 9.684-1.429 14.176-.146 1.334.381 2.234.658 3.618.658h13.117m101.707 7.416c5.947-1.189 11.64-5.327 17.319-7.454 7.267-2.721 14.17-4.265 21.704-1.753 11.424 3.808-1.614 8.219.219 9.719.066.054 15.349-3.069 8.185.146-6.73 3.019-15.51 2.604-22.581 1.534-5.219-.789-10.334-2.221-15.236-4.165-2.269-.9-7.973-2.659-8.66-5.663-.825-3.61 3.647-8.433 5.773-10.852 1.785-2.031 1.443-2.556-1.534-2.448-7.69.28-16.363 2.53-22.8 6.796-2.838 1.881-8.322 6.762-2.119 7.563 18.444 2.384 37.437 1.71 55.976 3.069 23.525 1.726 47.84 3.585 70.738 9.647 1.537.407 5.442 1.152 4.238 2.192-2.229 1.925-6.84 3.193-9.354 4.238-16.497 6.857-33.398 12.894-49.509 20.644-7.912 3.806 7.343-.086 8.294-.256 18.411-3.284 37.339-6.882 54.954-13.299 3.27-1.192 9.534-3.216 2.484-3.216-27.462 0-54.859 2.973-82.21 5.116-9.904.775-19.814 1.62-29.742 2.009-.015.001-6.669.673-7.527-.036-.765-.632 12.453-16.489 13.3-17.539 3.443-4.267 6.79-8.498 9.792-13.08.804-1.227-3.626 4.137-3.983 4.64-2.152 3.032-6.131 8.445-3.617 12.313 1.782 2.742 5.98 4.071 8.842 4.896 11.798 3.404 24.357 4.705 36.538 5.627 28.437 2.155 59.544 2.599 86.888-6.796a62.79 62.79 0 0 0 5.846-2.338c1.442-.665 4.599-1.364 3.873-2.777-1.306-2.538-19.32 4.431-20.023 4.677-8.666 3.03-97.592 42.058-100.918 27.696-.64-2.762.786-6.486 1.571-8.989 1.503-4.793 3.275-9.509 4.933-14.25.798-2.283 2.206-9.91 4.603-11.509.61-.407-.792 1.235-1.169 1.863-1.205 2.009-2.086 4.111-2.484 6.431-.745 4.333.476 7.615 5.407 6.942 13.616-1.856 27.223-11.706 35.844-21.922 2.706-3.208 13.469-16.773 6.65-21.156-2.387-1.535-6.191-.444-8.587.256-7.722 2.256-15.053 5.967-22.105 9.755-16.114 8.657-34.147 18.708-46.257 32.775-6.518 7.572-4.092 12.87 5.334 15.273 19.397 4.944 43.419 1.066 60.909-8.331 7.319-3.932 18.44-12.715 13.519-22.434-4.01-7.922-16.108-8.834-23.749-8.112-11.753 1.112-23.529 6.889-32.227 14.762-7.112 6.438-8.985 14.055.548 19.255 12.3 6.709 29.925 7.337 43.298 4.093 8.781-2.131 16.826-9.161 11.473-18.744-7.535-13.489-29.448-15.04-42.859-14.689-16.914.444-37.058 5.799-48.779 18.927-3.753 4.204-7.184 11.004-5.48 16.808 1.48 5.045 8.174 5.708 12.496 6.211 15.504 1.804 31.903-.208 46.987-3.946 2.651-.657 7.757-1.642 9.902-3.873 1.849-1.923-4.334-4.452-4.969-4.75-9.266-4.35-19.56-6.017-29.742-5.408-4.752.285-10.641.812-13.957 4.714-.241.283-1.625 1.517-1.352 1.79.607.608 1.805 1.003 2.557 1.242 7.057 2.249 14.697 2.877 21.996 3.8 14.471 1.831 28.95 3.547 43.407 5.481 6.911.925-8.098.928-8.549.95-23.905 1.182-47.796 2.347-71.688 3.8-9.949.605-19.904 1.132-29.852 1.754-3.749.234-8.17.132-11.838 1.279-1.339.418 2.801-.169 4.202-.256 10.311-.64 20.66-.776 30.984-1.023 43.116-1.031 86.216-1.608 129.345-1.608h36.465-6.723" stroke="#fff" stroke-linecap="round" stroke-width="1.5"/></svg>